<?xml version="1.0" encoding="UTF-8"?>
<svg id="Layer_1" data-name="Layer 1" xmlns="http://www.w3.org/2000/svg" viewBox="0 0 409 408.8">
  <path d="M41.44,408.8c-.77,0-1.54-.16-2.23-.5-2.93-1.46-6.37-1.82-9.46-3.11-16.51-6.89-27.75-22.55-29.51-40.41-.02-.2-.03-.41-.03-.61.73-98.08-1.54-196.46,1.14-294.37,0-.24.03-.49.06-.73,2.67-17.31,24.04-37.14,41.49-37.14h19.1c2.9,0,5.25-2.35,5.25-5.25V5.25c0-2.9,2.35-5.25,5.25-5.25h21.44c2.9,0,5.25,2.35,5.25,5.25v21.44c0,2.9,2.35,5.25,5.25,5.25h200.29c2.9,0,5.25-2.35,5.25-5.25V5.25c0-2.9,2.35-5.25,5.25-5.25h21.44c2.9,0,5.25,2.35,5.25,5.25v21.44c0,2.9,2.35,5.25,5.25,5.25h19.1c2.45,0,10.5,2.55,13.16,3.61,15.61,6.22,25.57,20.57,29.41,36.49.1.41.15.84.15,1.26v294.53c0,.7-.15,1.39-.41,2.03-1.82,4.43-2.73,8.69-5.04,13.13-7.21,13.86-20.43,22.48-35.51,25.7-.37.08-.75.12-1.13.12H41.44ZM62.02,63.88h-11.46c-10.13,0-18.42,8.29-18.42,18.42v30.62c0,2.9,2.35,5.25,5.25,5.25h334.43c2.9,0,5.25-2.35,5.25-5.25v-30.62c0-10.13-8.29-18.42-18.42-18.42h-11.46c-2.9,0-5.25,2.35-5.25,5.25v21.44c0,2.9-2.35,5.25-5.25,5.25h-21.44c-2.9,0-5.25-2.35-5.25-5.25v-21.44c0-2.9-2.35-5.25-5.25-5.25H104.45c-2.9,0-5.25,2.35-5.25,5.25v21.44c0,2.9-2.35,5.25-5.25,5.25h-21.44c-2.9,0-5.25-2.35-5.25-5.25v-21.44c0-2.9-2.35-5.25-5.25-5.25ZM371.81,150.11H37.38c-2.9,0-5.25,2.35-5.25,5.25v208.33c0,5.8,10.13,14.37,16.33,13.21h313.05c5.93.77,15.54-7.67,15.54-13.21v-208.33c0-2.9-2.35-5.25-5.25-5.25Z"/>
  <rect x="60.88" y="183.64" width="31.94" height="31.94" rx="7.93" ry="7.93"/>
  <rect x="124.75" y="183.64" width="31.94" height="31.94" rx="7.93" ry="7.93"/>
  <rect x="188.63" y="183.64" width="31.94" height="31.94" rx="7.93" ry="7.93"/>
  <rect x="252.5" y="183.64" width="31.94" height="31.94" rx="7.93" ry="7.93"/>
  <rect x="316.38" y="183.64" width="31.94" height="31.94" rx="7.93" ry="7.93"/>
  <rect x="60.88" y="247.52" width="31.94" height="31.94" rx="7.93" ry="7.93"/>
  <rect x="124.75" y="247.52" width="31.94" height="31.94" rx="7.93" ry="7.93"/>
  <rect x="188.63" y="247.52" width="31.94" height="31.94" rx="7.93" ry="7.93"/>
  <rect x="252.5" y="247.52" width="31.94" height="31.94" rx="7.93" ry="7.93"/>
  <rect x="316.38" y="247.52" width="31.94" height="31.94" rx="7.93" ry="7.93"/>
  <rect x="60.88" y="311.39" width="31.94" height="31.94" rx="7.93" ry="7.93"/>
  <rect x="124.75" y="311.39" width="31.94" height="31.94" rx="7.93" ry="7.93"/>
  <rect x="188.63" y="311.39" width="31.94" height="31.94" rx="7.93" ry="7.93"/>
  <rect x="252.5" y="311.39" width="31.94" height="31.94" rx="7.93" ry="7.93"/>
</svg>