<svg width="24" height="25" viewBox="0 0 24 25" fill="none" xmlns="http://www.w3.org/2000/svg">
<g id="Group">
<path id="Vector" d="M12.0001 0.166229C5.38324 0.166229 0 5.54939 0 12.1661C0 18.783 5.38313 24.1662 11.9999 24.1662C18.6169 24.1662 24 18.783 24 12.1661C24.0001 5.54939 18.617 0.166229 12.0001 0.166229ZM12.0001 22.5235C6.28904 22.5235 1.64284 17.8772 1.64284 12.1661C1.64273 6.45518 6.28904 1.80894 12.0001 1.80894C17.7111 1.80894 22.3574 6.45518 22.3574 12.1661C22.3574 17.8773 17.7111 22.5235 12.0001 22.5235Z" fill="#097695"/>
<path id="Vector_2" d="M18.1918 12.0059H12.4914V5.77872C12.4914 5.32511 12.1237 4.95737 11.67 4.95737C11.2164 4.95737 10.8486 5.32511 10.8486 5.77872V12.8273C10.8486 13.2809 11.2164 13.6486 11.67 13.6486H18.1918C18.6455 13.6486 19.0131 13.2809 19.0131 12.8273C19.0131 12.3737 18.6454 12.0059 18.1918 12.0059Z" fill="#097695"/>
</g>
</svg>
