<?xml version="1.0" encoding="UTF-8"?>
<svg id="Layer_2" data-name="Layer 2" xmlns="http://www.w3.org/2000/svg" viewBox="0 0 493.54 493.54">
  <g>
    <g>
      <path d="M233.15,1.49c196.68-10.32,326.95,202.99,224.57,372.61-95.2,157.74-325.77,157.71-420.96,0C-58.68,215.98,49.47,11.13,233.15,1.49ZM334.85,255.88c5.65.29,23.75,11.59,28.72,14.93,2.93-1.26,1.58.44,3.47,1.86,11.78,8.9,27.12,15.37,34.89,28.76h0c16.54,33.36,24.39,71.23,23.74,108.56,1.49,1.49,1.44-.69,2.13-1.41,73.3-76.53,80.69-201.84,25.06-290.39C360.21-29.31,147.13-34.08,48.2,108.33c-63.22,91-57.66,222.11,20.24,302.75.74.77,1.26,1.67,2.51,1.42h0c-.94-4.8-.86-9.79-.75-14.69.68-28.28,6.1-60.02,17.79-85.91,3.21-7.11,5.36-10.89,10.85-15.97-4.25,7.69-7.81,12.79-11.26,21.28-12.6,30.98-16.29,63.67-15.77,96.94h0c11.81,12.7,25.24,24.3,39.68,33.99.92.62,6.07,4.37,6.66,3.7-.54-21.37,4.61-42.41,5.73-63.65.09.09.82-.16,1.24.18.74.59.58,2.43,2.32,1.97,0,0,0,0,0,0,1.33-4.02,1.38-7.04,1.39-11.45.01-5.44-3.3-4.33-7.81-4.27.21,3.02-.27,8.25-.05,10.43.07.7,8.14.88,8.6,1.39.34.38-1.74,4.16-1.64,4.26-10.96-.91-9.17-6.52-9.1-10.03.16-7.86,2.03-23.62,5.16-30.63,4.88-10.94,15.57-16.12,26.4-19.49-.2-5.46.1-10.94-.02-16.4-.04-1.89-.77-3.62-.78-5.66-.07-18.31,1.94-35.32,10.04-51.88l-24.08,12.03c-13.95,7.74-25.33,16.78-36.71,27.3.43-.78-.16-1.63,1.39-3.26,4.44-4.65,15.09-12.82,20.56-16.63,10.62-7.4,23.06-13.36,34.78-18.86,1.71-.8,4.32-.97,5.45-1.7s7.57-10.89,9.68-13.2c7.64-8.35,16.95-14.64,28.42-16.01-1.54,3.63-1.74,7.93-2.79,11.61-1.48,5.18-8.22,13.29-7.23,18.2,4.18,9.37,7.76,18.99,11.59,28.5,12.49,31.03,26.47,63.91,41.27,94.59.54,1.12,4.06,7.6,4.56,7.58,3.24-5.42,6.14-11.19,8.84-16.89,14.81-31.31,27.41-62.6,40.52-94.65,1.9-4.64,7.92-14.86,8.23-18.98.51-6.66-5.64-14.12-7.55-20.34-1.79-2.16-10.2-1.57-12.66-.69-1.27.46-6.68,6.75-8.41,8.18-7.36,6.05-15.45,11.12-23.99,15.35-1.79,3.64,3.52,4.45,3.1,8.01-.96-1.01-7.36-7.34-7.98-7.23l-20.15,19.96c-.39.87.65,1.88,1.11,2.51,2.27,3.13,7.21,8.63,9.99,11.47,12.88,13.16,19.45-4.1,28.18-12.22,1.52-3.45-6.15-8.43-8.55-11.02-.74-.8-6.12-7.86-5.21-8.38,6.16-.94,16.43,15.66,15.65,18.66-1.06,4.06-11.85,13.11-13.86,16.87-.2.37.05.85.47.86.02,0,.04,0,.07,0,.26.02.47.22.51.49,1.22,8.5,7.89,22.4,7.6,30.29-.2,5.53-8.09,19.87-10.67,25.8-1.09,2.49-1.65,7.92-4.14,9.47-1.38.86-1.11-.16-1.45-.39,1.27-.44,1.42-1.72,1.85-2.8,2.8-7,11.51-23.97,12.4-29.79.3-1.95.07-4.24-.12-6.22l-7.07-26.27c-.99.08-1.97.65-3.12.7-3.39.14-6.39-.24-9.68.07.15,6.21-5.99,18.04-6.97,24.78-1.17,8.08,8.32,27.4,11.89,35.68.4.92,3.02,4.69,1.56,5.36-2.74-2.1-14.71-31.92-15.06-35.48-.89-9.06,5.25-21.32,6.23-30.52.08-.18.18-.29.3-.36.95-.56,1.23-1.83.38-2.53-.52-.43-1.21-.7-1.92-1.65-2.2-2.96-3.73-4.07-6.07-6.77-2.15-2.48-4.5-5.13-5.95-8.12.26-3.06,12.9-12.41,14.93-15.81,1.83-3.06-.22-2.98-1.08-4.75-.42-.87-.2-2.11-.55-2.63-.21-.32-2.75-1.16-3.64-1.73-7.4-4.76-22.52-16.42-27.26-23.51-2.86-4.28-2-9.78-1.1-14.61.22-1.18-.47-1.23,1.4-1.08h0c-.14,5.76-2.38,10.18,1.43,15.37,4.92,6.69,18.61,17.63,25.8,22.11,6.84,4.26,9,6.7,17.1,3.63,8.45-3.21,26.22-16.82,31.84-23.94,4.83-6.12,3.27-10.76,2.57-17.83-.04-.38-.43-.62-.78-.48l-.18.07c-.54.22-1.02-.41-.68-.87,2.46-3.3,4.99-6.56,6.95-10.21,1.54-2.87,6.11-16.59,6.89-17.06s3.58.04,5.09-.28c10.59-2.24,16.72-21.8,12.81-31.09-2.54-6.02-6.51-3.28-11.93-3.81-21.7-2.1-27.12-32.28-30.77-49.34-1.25.02-8.13,9-9.99,10.75-11.3,10.68-32.27,18.93-47.84,17.77-4.8-.36-9.31-2.16-14.04-2.77-.13,5.14-4.72,21.06-9.02,23.53-6.08,3.48-14.99-4.47-16.69,6.2-1.61,10.12,3.21,25.77,14.08,28.75,1.68.46,4.01-.39,5.26,1.18,6.56,28.56,33.52,52.85,64.14,43.54,8.14-2.48,15.97-7.86,21.97-13.79,1.02,2.64-4.46,6.3-6.57,7.74-22.8,15.57-49.82,12.26-67.46-9.17-3.36-4.08-9.33-14.17-11.28-19.11-.78-1.98-1.28-6.62-2.25-7.77s-4.64-1.36-6.49-2.09c-10.39-4.16-14.57-19.72-12.71-29.86.58-3.18,5.36-5.96,5.5-7.98.16-2.42-2.7-10.46-3.29-13.87-2.24-12.83-4-33.02,4.4-43.78,5.13-6.56,27.94-26.27,35.2-30.59,13.23-7.87,30.58-10.57,45.12-4.64,4.67,1.9,9.32,6.65,13.74,8.43,8.28,3.34,14.64.53,23.55,7.2,22.95,17.19,19.52,53.02,14.3,77.78,12.29,7.95,3.44,34.06-8.35,38.25-2.1.75-4.67-.11-5.56.83-1.02,1.08-4.71,12.63-6.41,15.78-1.91,3.53-4.49,6.74-6.81,10,3.68-.28,2.23,11.53,2.86,12.16,5.59-.18,11.7-.1,16.97,1.98,8.46,3.34,22.69,19.39,27.37,27.34,11.55,19.58,11.59,47.96,11.45,70.35,0,1.04.83,1.88,1.87,1.88h11.35c1.19,0,6.92,2.92,8.24,3.92,6.28,4.77,6.75,11.18,7.17,18.58.49,8.73,1.18,36.2-1.11,43.29-1.42,4.4-5.3,8.6-9.48,10.54-7.2,3.34-32.61,3.03-41.32,2.37-11.59-.88-18.64-7.1-19.66-18.95-.84-9.81-1.28-26.03-.72-35.81.71-12.33,3.38-22.63,17.56-23.92,2.03-.18,9.11.34,12.53-.08,1.04-.13,1.85-.97,1.95-2.02,3.05-32.42-1.68-74.45-34.87-89.45,1.55,5.64,6.84,12.11,7.56,17.85.44,3.58-6.86,17.1-8.63,21.49-12.78,31.76-25.8,63.19-40.29,94.16-2.63,5.61-6.51,14.8-9.59,19.73-.56.89-.66,1.51-1.97,1.24-9.57-23.81-21.43-46.72-31.6-70.31-9.2-21.35-17.41-43.14-26.18-64.67-1.14-5.97,6.39-13.64,7.71-19.48-1.48-1.15-12.15,7.06-13.93,8.59-5.94,5.14-9.66,10-12.87,17.17-10.02,22.39-9.67,44.51-6.72,68.53h0c7.7,2.19,15.41,5.62,20.62,11.92,7.83,9.47,7.88,22.25,9.22,33.66.37,3.17,1.81,8.24-.3,10.99-2.59,3.37-4.43-.41-3.89,8.25,1.35,21.75,6.4,45.32,8.57,67.59l-1.45-2.45-2.12-8.99c-.07,8.31,2.96,17.22,2.86,25.41-.02,1.37.68,2.89-1.44,2.48-2.58-30.19-6.77-61.3-11.78-91.17,1.62.4,7.16-.74,7.87-1.77s1.05-9.73-1.33-10.81c-.38-.17-.5-.64-.21-.93l.19-.19c.36-.35.12-.96-.39-.98-1.45-.04-3.02-.08-4.23.48-1.07.5-.19,1.17-2.28,2.38,0,0,0,0,0,.01-.05,5.85,1.53,7.26,2.55,13.34-2.9-.71-5.77-11.47-3.74-13.14.39-.32,1.02-.11,1.19-.21.16-20.08-7.43-38.77-30.93-35.57-7.44,1.01-16.23,7.83-18.76,14.85-1.2,3.33-2.88,14.17-2.59,17.51.26,2.92,3.03,4.62,3.41,6.21,1.39,5.88-3.69,7.7-5.03,12.84s-2.58,14.72-3.26,20.34c-1.63,13.44-1.68,27.2-2.95,40.69.34,1.78,5.97,4.68,7.87,5.75,16.02,9.01,43.36,20.81,61.35,23.76,2.2.36,3.5.99,3.03-1.96,0,0,0,0,0,0,.19.2,1.97-.42,1.57,2.19-.05.35.21.67.56.67h0c.33,0,.6-.28.56-.62-.12-1.2.82-2.42.88-2.96l.84,4.16c81.34,17.41,168.88-10.44,225.08-71.15l.59-1.39c.28-30.72-4.19-60.59-14.63-89.51-2.23-6.18-5.28-14.41-8.66-19.95-7.97-13.1-31.84-27.86-45.41-35.4-6.7-3.73-14.87-6.29-20.5-11.32ZM333.29,328.97c-12.44.32-27.93-.84-29.83,15.31-.79,6.72-.05,13.33-.05,19.92,0,13.41-4.06,35.93,12.68,40.24,7.13,1.84,36.54,1.7,43.66-.29,6.47-1.8,11.41-7.6,12.21-14.25,1.2-10.05.92-31.79.11-42.14-1.49-18.96-14.51-18.36-29.73-18.24-3.42.03-7-.6-9.04-.54ZM192.52,449.69v-2.85h-.7v2.85h.7Z" style="fill: #1f3139;"/>
      <path d="M99,295.49c-.05.22-.18.41-.34.56-5.34,4.98-7.47,8.76-10.64,15.78-11.69,25.89-17.11,57.63-17.79,85.91-.1,4.09-.17,8.24.36,12.29.15,1.17-1.28,1.86-2.1,1.01l-.02-.02C-9.44,330.37-15,199.27,48.22,108.26,147.16-34.14,360.23-29.38,452.89,118.13c55.63,88.56,48.23,213.87-25.06,290.39-.69.72-.64,2.9-2.13,1.41.65-37.32-7.19-75.16-23.71-108.51-.02-.03-.03-.07-.05-.1-7.78-13.36-23.09-19.82-34.86-28.72-1.75-1.32-.71-2.87-2.9-2.08-.36.13-.77.09-1.09-.12-5.61-3.71-22.73-14.31-28.2-14.59-.24-.01-.48,0-.72,0-.43,0-.84-.22-1.06-.59-5.01-8.12-18.76-23.49-27.02-26.75-4.94-1.95-10.61-2.14-15.9-2.01-.67.02-1.22-.51-1.25-1.18-.09-2.68.24-8.93-1.55-10.56-.48-.43-.59-1.14-.21-1.66,2.06-2.83,4.23-5.66,5.89-8.73,1.7-3.15,5.39-14.7,6.41-15.78.89-.94,3.46-.08,5.56-.83,11.57-4.12,20.32-29.37,8.98-37.81-.38-.28-.58-.74-.48-1.2,5.13-24.73,8.26-60-14.46-77.02-8.91-6.67-15.27-3.86-23.55-7.2-4.42-1.78-9.08-6.52-13.74-8.43-14.55-5.94-31.9-3.23-45.12,4.64-7.26,4.32-30.08,24.03-35.2,30.59-8.4,10.76-6.64,30.95-4.4,43.78.59,3.41,3.45,11.45,3.29,13.87-.13,2.02-4.91,4.8-5.5,7.98-1.86,10.14,2.32,25.7,12.71,29.86,1.85.74,5.53.97,6.49,2.09s1.46,5.79,2.25,7.77c1.74,4.4,6.66,12.88,10.09,17.57.34.47.37,1.19-.1,1.54-.16.12,0,.42-.12,1.08-.9,4.83-1.76,10.33,1.1,14.61,4.74,7.09,19.86,18.75,27.26,23.51.89.57,3.43,1.41,3.64,1.73.34.52,2.94,1.57,3.37,2.44.86,1.77.1,2.02-1.72,5.08s-11.31,11.6-14.23,15.05c-.32.38-.38.91-.15,1.34,1.43,2.7,3.4,5.13,5.38,7.41,2.34,2.7,3.87,3.81,6.07,6.77,1.09,1.47,1.89,1.14,2.56,2.5.47.96-.1,1.93-.77,2.16-.16.06-.3.17-.41.41-.98,9.2-7.26,20.93-6.37,29.99.35,3.56,11.4,30.71,13.59,33.25.21.25.45.53.72.72.34.23.04,1.18,1.39.28,2.4-1.61,2.58-6.77,3.93-9.45,3.26-6.46,10.11-20.41,10.32-25.94.29-7.84-5.85-20.47-7.11-28.94-.05-.32-.22-.6-.47-.8,0,0-.02-.01-.03-.02-.69-.54-.83-1.52-.35-2.25,2.77-4.17,12.97-12.32,13.16-16.29.12-2.48-6.3-8.74-8.74-11.31l-.77-.93c-.49-.57-1.22-1.59-1.63-2.03-1.51-1.94-5.72-3.66-4.57-6.97.11-.3.32-.56.61-.7,8.39-4.19,16.35-9.2,23.59-15.15,1.73-1.42,7.14-7.72,8.41-8.18,2.38-.86,10.32-1.43,12.46.48.14.12.22.29.28.47,2,6.17,7.97,13.51,7.47,20.08-.32,4.12-6.34,14.34-8.23,18.98-13.11,32.05-25.71,63.34-40.52,94.65-2.44,5.15-5.19,11.19-8.09,16.31-.46.82-1.64.83-2.11.01-1.27-2.18-3.12-5.86-3.5-6.64-14.8-30.67-28.48-63.93-40.97-94.96-3.81-9.46-7.38-19.03-11.53-28.36-.04-.1-.08-.2-.09-.3-.82-4.92,5.8-12.91,7.26-18.04.88-3.06,1.05-6.36,1.97-9.47.26-.86-.49-1.7-1.38-1.54-10.53,1.8-19.04,7.57-26.22,15.43-2.11,2.31-8.57,12.63-9.67,13.33s-3.55.98-5.26,1.78c-11.72,5.5-24.37,11.25-34.99,18.65-5.47,3.81-16.12,11.98-20.56,16.63-1.31,1.37-1.09,2.2-1.25,2.89Z" style="fill: #374b52;"/>
      <path d="M196.1,464.11c-2.17-22.27-7.22-45.84-8.57-67.59-.54-8.67,1.29-4.88,3.89-8.25,2.12-2.75.67-7.82.3-10.99-1.34-11.4-1.39-24.18-9.22-33.66-5.21-6.3-12.92-9.73-20.62-11.92-2.96-24.02-3.91-46.6,6.12-68.99,3.21-7.17,7.21-12.3,13.15-17.44,1.78-1.54,12.71-10.15,14.2-8.99-1.33,5.85-8.81,14.65-7.66,20.62,8.77,21.53,16.98,43.32,26.18,64.67,10.17,23.6,22.03,46.5,31.6,70.31,1.31.27,1.41-.34,1.97-1.24,3.08-4.93,6.96-14.12,9.59-19.73,14.5-30.97,27.51-62.39,40.29-94.16,1.77-4.39,9.07-17.91,8.63-21.49-.71-5.74-6.01-12.21-7.56-17.85,33.1,14.96,37.9,56.81,34.89,89.2-.11,1.22-1.07,2.18-2.29,2.31-3.52.36-10.24-.13-12.21.05-14.19,1.29-16.85,11.59-17.56,23.92-.56,9.79-.13,26.01.72,35.81,1.02,11.86,8.08,18.08,19.66,18.95,8.71.66,34.11.98,41.32-2.37,4.18-1.94,8.06-6.14,9.48-10.54,2.29-7.09,1.6-34.56,1.11-43.29-.42-7.4-.89-13.81-7.17-18.58-.22-.17-.56-.38-.98-.62-3.91-2.2-8.33-3.3-12.82-3.3h-5.92c-.97,0-1.75-.78-1.74-1.75.13-22.41.12-50.86-11.45-70.48.48.02.96-.02,1.43,0,5.63,5.03,13.8,7.59,20.5,11.32,13.57,7.54,37.44,22.31,45.41,35.4,3.37,5.54,6.42,13.77,8.66,19.95,10.44,28.92,14.91,58.78,14.63,89.51l-.59,1.39c-56.19,60.71-143.74,88.56-225.08,71.15l-.84-4.16c.52-4.6-.95-12.24-1.43-17.16Z" style="fill: #eaecee;"/>
      <path d="M207.54,215.89c17.64,21.43,44.66,24.74,67.46,9.17,2.11-1.44,7.58-5.09,6.57-7.74-6,5.93-13.84,11.31-21.97,13.79-30.62,9.31-57.58-14.98-64.14-43.54-1.25-1.57-3.58-.72-5.26-1.18-10.87-2.98-15.69-18.62-14.08-28.75,1.7-10.67,10.61-2.72,16.69-6.2,4.31-2.46,8.89-18.39,9.02-23.53,4.73.61,9.24,2.42,14.04,2.77,15.57,1.16,36.55-7.09,47.84-17.77,1.86-1.76,8.74-10.74,9.99-10.75,3.65,17.06,9.07,47.24,30.77,49.34,5.42.52,9.39-2.21,11.93,3.81,3.91,9.28-2.22,28.85-12.81,31.09-1.52.32-4.34-.17-5.09.28-.79.48-5.35,14.2-6.89,17.06-2.29,4.26-5.34,7.98-8.17,11.87l2.79-1.15c.66,7.51,2.51,12.27-2.49,18.6-5.63,7.12-23.39,20.73-31.84,23.94-8.09,3.08-10.26.63-17.1-3.63-7.19-4.48-20.88-15.42-25.8-22.11-3.82-5.19-1.57-9.61-1.43-15.37Z" style="fill: #eaecee;"/>
      <path d="M98.84,295.99c11.38-10.52,22.76-19.56,36.71-27.3l24.08-12.03c-8.1,16.56-10.12,33.57-10.04,51.88,0,2.04.74,3.77.78,5.66.12,5.46-.18,10.94.02,16.4-10.83,3.37-21.53,8.55-26.4,19.49-3.12,7.01-5,22.77-5.16,30.63-.07,3.36.25,6.06,3.83,6.73.36.07.68.26.94.51.09.09.19.18.29.29-1.11,21.24-6.27,42.28-5.73,63.65-.59.67-5.74-3.09-6.66-3.7-14.44-9.68-27.86-21.28-39.68-33.99-.53-33.27,3.16-65.96,15.77-96.94,3.45-8.48,7.01-13.58,11.26-21.28Z" style="fill: #eaecee;"/>
      <path d="M181.82,374.14c.04,1.49-.28,2.97-.9,4.33,0,0,0,0,0,.01-.68,1.51-.61,6.44.69,9.11s2.38,5.62,2.86,8.63c4.35,27.64,7.16,55.71,9.55,83.57.04.42-.1,1.32,0,1.43.47,2.95-.83,2.32-3.03,1.96-17.99-2.95-45.33-14.74-61.35-23.76-.61-.34-1.59-.87-2.66-1.48-3.23-1.85-5.08-5.41-4.8-9.12.89-11.92,1.11-24,2.54-35.83.68-5.62,1.87-15.01,3.26-20.34s6.44-7.58,3.68-14.62c-.6-1.53-1.89-2.35-2.06-4.43-.28-3.34,1.39-14.18,2.59-17.51,2.53-7.02,11.32-13.84,18.76-14.85,22.45-3.05,30.38,13.88,30.9,32.9Z" style="fill: #eaecee;"/>
      <path d="M333.35,329.05c2.04-.05,5.63.57,9.04.54,15.22-.12,28.24-.72,29.73,18.24.82,10.35,1.1,32.09-.11,42.14-.8,6.65-5.74,12.45-12.21,14.25-7.12,1.98-36.52,2.12-43.66.29-16.74-4.31-12.68-26.83-12.68-40.24,0-6.59-.74-13.19.05-19.92,1.9-16.15,17.39-14.99,29.83-15.31ZM314.17,394.71c.06.05-.27.98.51,1.42,3.7,2.12,30.55,1.82,36.36,1.47,7.45-.45,13.22-.42,13.94-8.94.92-10.95,1.05-32.85,0-43.69-.39-4.07-2.56-7.11-6.47-8.55-5.25-1.93-28.8-1.58-35.43-1.09-3.58.26-8.6,1.18-10.69,4.32-1.2,1.81-1.64,3.91-1.83,6.05-1.25,14.13,1.01,29.91.02,44.25.46,4,1.55,3.22,3.58,4.77Z" style="fill: #374b52;"/>
      <path d="M253.57,265.42c.48.5.7.85,1.16,1.34.14.15,2.26,2.82,3,3.62,2.19,2.36,8.4,6.94,8.33,10.34-.01.52-.26,1-.64,1.36-8.52,8.27-15.2,24.39-27.87,11.44-2.78-2.84-7.72-8.34-9.99-11.47l-.43-.59c-.63-.86-.54-2.06.22-2.81l18.07-17.9c.75-.74,1.93-.82,2.75-.16,1.85,1.48,4.7,4.13,5.38,4.84Z" style="fill: #eaecee;"/>
      <path d="M193.96,479.79c2.12.41,1.42-1.11,1.44-2.48.1-8.19-2.93-17.1-2.86-25.41l2.12,8.99,1.45,2.45c.48,4.92,1.95,12.56,1.43,17.16-.07.64-1.34,2.2-.72,3.58h-1.43c.83-3.38-1.23-2.65-1.43-2.86-.1-.11.04-1.01,0-1.43Z" style="fill: #374b52;"/>
      <rect x="191.82" y="446.9" width=".7" height="2.85" style="fill: #374b52;"/>
      <path d="M253.23,298.8l7.06,26.33c.2,1.98.43,4.27.12,6.22-.9,5.82-9.4,22.85-12.2,29.86-.43,1.08-.06.79-1.22,2.08-.27-.19-.62-.77-.83-1.01-.43-1.91-.41-1.27-.81-2.19-3.57-8.28-13.07-27.6-11.89-35.68.98-6.75,6.41-18.64,6.26-24.84l10.3-.44s2.22-.24,3.21-.32Z" style="fill: #eaecee;"/>
      <path d="M311.93,389.35c-.84-11.28-1.21-34.14,0-45.1.57-5.17,3.18-6.92,8.24-7.49,8.49-.96,27.83-.51,36.3.89,5.73.95,6.59,4.32,6.99,9.46.85,11.04,1,31.32,0,42.25-.36,3.97-1.25,4.67-5.01,5.72-7.13,1.98-28.15,1.65-36.17,1.07-1.65-.12-8.41-5.58-10.49-6.77-.14-.08-.32.04-.29.2.24,1.34.95,5.76,1.56,6.19.55.39,1.63.72,3.08.98,8.49,1.56,29.84,1.14,34.8.83,7.45-.45,13.22-.42,13.94-8.94.92-10.95,1.05-32.85,0-43.69-.39-4.07-2.56-7.11-6.47-8.55-5.25-1.93-28.8-1.58-35.43-1.09-3.58.26-8.6,1.18-10.69,4.32-1.2,1.81-1.64,3.91-1.83,6.05-1.25,14.13,1,30.05.01,44.39,0,0,.64,4.95,2.78,5.77l2.79.91" style="fill: #1f3139;"/>
      <path d="M314.1,394.69c-2.25-.64-2.04-3.57-2.17-5.34-.84-11.28-1.21-34.14,0-45.1.57-5.17,3.18-6.92,8.24-7.49,8.49-.96,27.83-.51,36.3.89,5.73.95,6.59,4.32,6.99,9.46.85,11.04,1,31.32,0,42.25-.36,3.97-1.25,4.67-5.01,5.72-7.13,1.98-28.15,1.65-36.17,1.07-1.77-.13-6.69-1.03-8.2-1.46ZM330.55,349.63c-1.62,3.08-.31,7.36-.71,10.73-.64.64-9.22-1.02-10.73.71v14.3l10.73.71.71,10.73h14.3l.71-10.73,10.73-.71v-14.3l-10.73-.71-.71-10.73h-14.3Z" style="fill: #eaecee;"/>
      <path d="M344.86,349.63v11.45s11.44,0,11.44,0v14.3h-11.45s0,11.44,0,11.44h-14.3v-11.45s-11.44,0-11.44,0v-14.3h11.45s0-11.44,0-11.44h14.3ZM333.41,361.79c-.14.36-1.18,1.93-1.43,2.15l-9.31.41v8.17s9.31,0,9.31,0c.09.05,1.38,1.34,1.43,1.43v9.3s8.59,0,8.59,0v-8.59c.37-.65,1.52-1.83,2.14-2.15h8.59s0-8.59,0-8.59h-7.87c-.95-.34-2.35-1.23-2.86-2.14v-8.59s-8.17,0-8.17,0l-.41,8.59Z" style="fill: #1f3139;"/>
      <polygon points="356.3 375.38 345.57 376.09 344.86 386.82 344.85 375.37 356.3 375.38" style="fill: #fefefe;"/>
      <polygon points="344.86 349.63 345.57 360.36 356.3 361.07 344.85 361.08 344.86 349.63" style="fill: #fefefe;"/>
      <path d="M330.55,349.63v11.45s-11.44,0-11.44,0c1.51-1.73,10.09-.07,10.73-.71.41-3.37-.91-7.65.71-10.73Z" style="fill: #fefefe;"/>
      <polygon points="319.11 375.38 330.56 375.37 330.55 386.82 329.84 376.09 319.11 375.38" style="fill: #fefefe;"/>
      <path d="M333.41,361.79c1.16-2.99.29-4.9,1.13-7.88h6.74c.21,2.77-.67,5.4.71,7.88.51.91,1.91,1.81,2.86,2.15,2.6.93,4.34.84,7.16.71v7.16c-2.86.16-5.27-.61-7.87.71-.63.32-1.77,1.5-2.15,2.15-1.4,2.45-.49,5.13-.71,7.87h-7.16c-.31-2.84.81-6.16-.71-8.59-.05-.09-1.34-1.38-1.43-1.43-.24-.15-.46-.81-1.05-.71h-7.54s0-6.74,0-6.74c.18-1.19,6.67.53,8.59-1.13.25-.22,1.29-1.79,1.43-2.15Z" style="fill: #eaecee;"/>
      <path d="M331.98,363.93c-1.92,1.66-8.42-.07-8.59,1.13v6.74s7.54,0,7.54,0c.59-.1.81.56,1.05.71h-9.3s0-8.17,0-8.17l9.31-.41Z" style="fill: #fefefe;"/>
      <path d="M333.41,373.95c1.52,2.43.4,5.75.71,8.59h7.16c.22-2.74-.69-5.42.71-7.87v8.59s-8.59,0-8.59,0v-9.3Z" style="fill: #fefefe;"/>
      <path d="M333.41,361.79l.41-8.59h8.17s0,8.59,0,8.59c-1.39-2.48-.51-5.11-.71-7.87h-6.74c-.84,2.97.04,4.88-1.13,7.87Z" style="fill: #fefefe;"/>
      <path d="M344.86,363.93h7.87s0,8.59,0,8.59h-8.59c2.61-1.32,5.01-.56,7.87-.72v-7.16c-2.81.13-4.56.22-7.16-.71Z" style="fill: #fefefe;"/>
      <path d="M257.95,267.98c-.46-.48-1.55-1.73-1.69-1.86-.8-3.59-5.02-3.97-3.23-7.61" style="fill: #374b52;"/>
    </g>
    <path d="M128.8,386.49l-8.35-.84s-.41-12.14-.32-12.08,8.1.56,8.1.56c0,0,1.46,1.51.57,12.37Z" style="fill: #1f3139;"/>
    <path d="M181.84,375.15s-3.43,8.39.33,13.64c2.82,3.94,8.62-2.08,8.62-2.08,0,0,1.64-10.29-.27-12.36s-8.67.79-8.67.79Z" style="fill: #1f3139;"/>
  </g>
  <polygon points="128.61 386.83 120.21 385.92 119.67 373.99 126.48 373.56 129.62 377.57 128.61 386.83" style="fill: #1f3139;"/>
  <path d="M182.22,388.62s-7.29-7.14.11-13.24c7.74-6.38,8.49,1.83,8.49,1.83,0,0,1.92,8.63-.41,10.18s-8.19,1.24-8.19,1.24Z" style="fill: #1f3139;"/>
</svg>