<?xml version="1.0" encoding="UTF-8"?>
<svg id="Layer_1" data-name="Layer 1" xmlns="http://www.w3.org/2000/svg" viewBox="0 0 384 384">
  <path d="M203.25,0c4.59,1.35,9.44,1.67,14.11,2.76,25.72,6,58.78,27.18,67.46,53.29,5.06,15.24,4.33,57.96,2.33,74.72-3.54,29.76-21.74,57.2-47.75,71.87l-.06,28.25c23.17,6.75,48.8,9.3,71.73,16.4,20.82,6.45,36.92,21.54,45.54,41.46l27.39,80.99v6c-2.15,3.64-4.6,6.09-8.25,8.25h-6c-3.75-2.36-5.55-2.85-7.52-7.11-10.91-23.56-16.14-54.83-26.41-79.34-8.59-20.51-26.99-30.49-48.57-32.05v24.38c3.91,2.14,8,3.07,12.01,5.24,10.07,5.44,19.7,17.18,22.7,28.3,2.86,10.58,3.27,38.51,1.96,49.63-.69,5.83-3.81,8.68-8.92,10.96h-18c-12.05-5.7-9.35-22.76,4.5-22.5-.86-14.96,3.91-33.47-9.39-44.23-8.08-6.54-19.91-7.27-28.79-1.83-16.5,10.1-11.23,29.74-12.06,46.06,14.1-.37,16.7,17.91,3.75,22.5h-18c-4-2.58-7.49-5.1-8.18-10.19-1.3-9.58-.88-38.23,1.02-47.6,3.46-17.06,18.07-31.54,34.88-35.24l.08-31.03-29.69-6.51-2.53,1.28-31.27,51.97c-4.78,6.84-13.84,6.84-18.62,0l-31.95-52.8c-3.16-1.92-26.1,6.09-31.49,5.63l-.05,55.79c35.23,12.82,29.69,62.28-6.7,68.71h-11.25c-5.52-2.43-10.5-3.68-15.36-7.52-22.72-17.94-15.48-52.21,10.86-61.86v-49.12c-21.61,1.65-39.95,11.46-48.57,32.05-10.26,24.51-15.54,53.96-26.07,78.18-2.19,5.04-3.47,6.14-8.61,8.26h-4.5c-4.26-1.72-6.65-4.39-9-8.25v-6l27.39-80.99c8.58-19.91,24.75-34.95,45.54-41.46l71.72-16.4-.06-28.25c-26.05-14.72-44.2-42.02-47.75-71.87-2-16.83-2.75-59.43,2.33-74.72,8.01-24.1,38.97-45.61,62.66-52.09l18.16-3.96h23.25ZM264.75,91.5v-24.38c0-6.36-11.37-19.34-16.15-23.6-33.39-29.87-88.03-27.82-118.49,5.22-3.24,3.51-10.86,13.81-10.86,18.39v24.38c6.91-4.66,16.19-19.87,25.07-19.45,3.7.17,13.67,5.61,18.43,7.07,18.95,5.81,40.18,5.8,59.07-.17,4.85-1.53,14.99-7.14,19.08-6.79,8.55.73,16.91,14.66,23.84,19.35ZM264.66,117.08c-11.61-2.67-18.63-12.69-27.32-19.61-29.11,11.49-61.54,11.34-90.69,0-8.71,6.95-15.59,16.94-27.32,19.61-2.19,34.39,22.32,65.76,55.54,73.66,46.93,11.16,92.21-25.44,89.78-73.66ZM216.75,212.25c-16.36,4.04-33.13,4.05-49.5,0v25.12c0,2.32,20.87,35.46,23.83,39.9.35.53-.22,1.3,1.29.98l24.38-40.88v-25.12ZM104.05,336.17c-2.61.54-6.15,3.74-7.45,6.04-6.96,12.32,7.62,25.19,18.84,16.59,11.13-8.53,2.78-25.56-11.39-22.64Z" style="fill: #020202;"/>
  <path d="M9,384H0v-8.25c2.35,3.86,4.74,6.53,9,8.25Z" style="fill: #fefefe;"/>
  <path d="M384,375.75v8.25h-8.25c3.65-2.16,6.1-4.61,8.25-8.25Z" style="fill: #fefefe;"/>
</svg>