<?xml version="1.0" encoding="UTF-8"?>
<svg id="Layer_1" data-name="Layer 1" xmlns="http://www.w3.org/2000/svg" xmlns:xlink="http://www.w3.org/1999/xlink" viewBox="0 0 729.44 823.42">
  <defs>
    <style>
      .cls-1 {
        stroke: #000;
      }

      .cls-1, .cls-2 {
        stroke-width: 3px;
      }

      .cls-1, .cls-3 {
        fill: #374b52;
      }

      .cls-4, .cls-5 {
        fill: #fff;
      }

      .cls-6 {
        mask: url(#mask);
      }

      .cls-5 {
        fill-rule: evenodd;
      }

      .cls-2 {
        fill: none;
        stroke: #fff;
        stroke-linecap: round;
      }

      .cls-7 {
        fill: #ce0303;
      }

      .cls-8 {
        fill: #1f3139;
      }

      .cls-9 {
        fill: #eaecee;
      }

      .cls-10 {
        fill: #fefefe;
      }

      .cls-11 {
        fill: #d9d9d9;
      }

      .cls-12 {
        fill: #fffdfd;
      }
    </style>
    <mask id="mask" x="105.37" y="746.79" width="53.17" height="53.17" maskUnits="userSpaceOnUse">
      <g id="mask0_2_20" data-name="mask0 2 20">
        <rect class="cls-11" x="105.37" y="746.79" width="53.17" height="53.17"/>
      </g>
    </mask>
  </defs>
  <g>
    <g>
      <path class="cls-8" d="M339.89.5c275.01-14.43,457.16,283.84,314.01,521.01-133.12,220.56-455.52,220.52-588.62,0C-68.15,300.42,83.06,13.98,339.89.5ZM482.1,356.21c7.9.4,33.21,16.21,40.16,20.88,4.1-1.76,2.22.61,4.85,2.6,16.48,12.45,37.92,21.49,48.79,40.22h0c23.12,46.65,34.1,99.6,33.19,151.8,2.08,2.08,2.01-.97,2.98-1.97,102.49-107,112.83-282.22,35.05-406.04C517.56-42.56,219.62-49.23,81.28,149.9-7.12,277.14.66,460.46,109.58,573.23c1.04,1.08,1.76,2.34,3.51,1.98h0c-1.32-6.71-1.21-13.68-1.04-20.54.96-39.54,8.53-83.93,24.87-120.13,4.49-9.94,7.49-15.23,15.17-22.33-5.95,10.76-10.93,17.89-15.75,29.75-17.62,43.32-22.78,89.03-22.05,135.55h0c16.52,17.76,35.29,33.98,55.48,47.52,1.29.86,8.49,6.11,9.31,5.18-.76-29.88,6.45-59.3,8.01-88.99.13.12,1.14-.22,1.73.25,1.03.82.81,3.4,3.25,2.75,0,0,0,0,0,0,1.86-5.62,1.93-9.84,1.94-16.02.02-7.61-4.62-6.05-10.92-5.97.29,4.22-.38,11.54-.08,14.59.1.99,11.38,1.23,12.02,1.95.47.53-2.43,5.82-2.3,5.96-15.32-1.28-12.82-9.12-12.73-14.03.22-11,2.84-33.03,7.21-42.83,6.82-15.3,21.77-22.54,36.92-27.25-.28-7.63.14-15.3-.02-22.93-.06-2.65-1.08-5.06-1.09-7.91-.1-25.61,2.71-49.39,14.04-72.54l-33.67,16.82c-19.51,10.82-35.41,23.46-51.33,38.17.6-1.09-.22-2.28,1.94-4.55,6.21-6.51,21.1-17.93,28.75-23.26,14.86-10.35,32.25-18.68,48.63-26.37,2.39-1.12,6.04-1.36,7.62-2.38s10.58-15.23,13.54-18.46c10.69-11.68,23.7-20.47,39.74-22.39-2.15,5.08-2.44,11.09-3.91,16.23-2.07,7.24-11.5,18.59-10.12,25.44,5.84,13.1,10.85,26.55,16.21,39.86,17.46,43.39,37.02,89.37,57.71,132.26.76,1.57,5.67,10.62,6.38,10.6,4.53-7.58,8.58-15.64,12.36-23.62,20.71-43.78,38.33-87.53,56.66-132.34,2.65-6.48,11.07-20.78,11.51-26.54.71-9.31-7.89-19.74-10.56-28.45-2.51-3.02-14.26-2.2-17.7-.96-1.77.64-9.34,9.45-11.76,11.44-10.29,8.45-21.61,15.55-33.54,21.47-2.5,5.09,4.93,6.22,4.33,11.2-1.35-1.41-10.29-10.26-11.16-10.1l-28.18,27.91c-.55,1.22.91,2.63,1.55,3.51,3.18,4.37,10.08,12.06,13.97,16.03,18.01,18.41,27.2-5.73,39.41-17.09,2.13-4.83-8.6-11.79-11.95-15.41-1.03-1.11-8.56-10.99-7.28-11.71,8.62-1.32,22.98,21.89,21.88,26.09-1.49,5.68-16.57,18.33-19.38,23.59-.28.52.07,1.19.66,1.21.03,0,.06,0,.09,0,.37.02.66.31.71.68,1.71,11.89,11.04,31.32,10.63,42.35-.29,7.73-11.32,27.79-14.93,36.07-1.52,3.48-2.31,11.08-5.78,13.24-1.92,1.2-1.55-.22-2.02-.55,1.78-.61,1.99-2.41,2.59-3.91,3.92-9.79,16.09-33.51,17.34-41.65.42-2.73.1-5.94-.17-8.7l-9.88-36.73c-1.38.12-2.75.91-4.36.98-4.74.19-8.94-.34-13.53.09.21,8.68-8.37,25.22-9.74,34.66-1.64,11.3,11.64,38.31,16.63,49.89.55,1.28,4.23,6.56,2.18,7.5-3.83-2.94-20.57-44.63-21.06-49.61-1.25-12.66,7.34-29.81,8.71-42.67.11-.25.25-.4.41-.5,1.33-.78,1.72-2.55.54-3.54-.72-.6-1.69-.97-2.69-2.31-3.08-4.14-5.21-5.7-8.49-9.47-3-3.46-6.29-7.18-8.31-11.35.36-4.28,18.04-17.35,20.88-22.11,2.55-4.28-.3-4.17-1.51-6.64-.59-1.22-.29-2.96-.77-3.68-.29-.44-3.85-1.62-5.09-2.42-10.34-6.66-31.5-22.96-38.12-32.88-3.99-5.98-2.79-13.67-1.54-20.42.31-1.65-.65-1.72,1.96-1.51h0c-.19,8.06-3.33,14.24,2.01,21.5,6.88,9.35,26.02,24.65,36.08,30.92,9.56,5.96,12.59,9.38,23.9,5.07s36.66-23.52,44.52-33.48c6.75-8.55,4.57-15.05,3.59-24.93-.05-.53-.6-.87-1.1-.67l-.25.1c-.75.31-1.43-.57-.95-1.22,3.45-4.62,6.97-9.17,9.71-14.28,2.15-4.01,8.54-23.19,9.64-23.86,1.05-.63,5,.06,7.12-.39,14.81-3.13,23.39-30.49,17.92-43.47-3.54-8.41-9.1-4.59-16.68-5.32-30.34-2.94-37.92-45.14-43.03-68.99-1.75.02-11.36,12.58-13.96,15.04-15.8,14.93-45.12,26.47-66.9,24.85-6.71-.5-13.01-3.03-19.63-3.88-.18,7.19-6.59,29.45-12.61,32.9-8.5,4.86-20.96-6.25-23.33,8.67-2.25,14.16,4.49,36.03,19.68,40.2,2.35.64,5.6-.55,7.35,1.65,9.18,39.93,46.87,73.9,89.69,60.88,11.38-3.46,22.33-10.99,30.72-19.28,1.42,3.7-6.23,8.81-9.18,10.82-31.88,21.77-69.66,17.14-94.32-12.82-4.7-5.71-13.04-19.82-15.77-26.73-1.09-2.77-1.79-9.26-3.14-10.86s-6.49-1.9-9.07-2.93c-14.53-5.81-20.37-27.57-17.78-41.75.81-4.44,7.5-8.33,7.68-11.15.22-3.39-3.77-14.62-4.61-19.39-3.13-17.94-5.59-46.17,6.16-61.21,7.17-9.18,39.07-36.74,49.22-42.78,18.5-11,42.75-14.78,63.09-6.48,6.52,2.66,13.04,9.29,19.22,11.78,11.58,4.67,20.48.74,32.93,10.07,32.09,24.04,27.29,74.13,19.99,108.75,17.19,11.12,4.81,47.62-11.67,53.48-2.94,1.04-6.53-.15-7.77,1.15-1.43,1.51-6.59,17.66-8.97,22.06-2.67,4.93-6.28,9.43-9.52,13.98,5.14-.39,3.12,16.12,4,17.01,7.82-.25,16.36-.14,23.73,2.77,11.83,4.67,31.72,27.11,38.28,38.22,16.15,27.38,16.2,67.07,16.02,98.37,0,1.45,1.17,2.63,2.62,2.63h15.87c1.67,0,9.68,4.08,11.52,5.48,8.78,6.67,9.44,15.63,10.02,25.98.69,12.21,1.65,50.62-1.55,60.53-1.99,6.16-7.41,12.03-13.26,14.74-10.07,4.68-45.6,4.23-57.77,3.31-16.2-1.23-26.07-9.92-27.5-26.5-1.18-13.71-1.8-36.39-1.01-50.08.99-17.24,4.72-31.64,24.56-33.44,2.84-.26,12.73.47,17.51-.12,1.46-.18,2.59-1.36,2.73-2.82,4.27-45.33-2.36-104.11-48.75-125.07,2.16,7.89,9.57,16.93,10.57,24.96.62,5-9.59,23.91-12.06,30.05-17.88,44.42-36.07,88.36-56.34,131.66-3.67,7.85-9.1,20.7-13.41,27.59-.78,1.25-.92,2.11-2.75,1.73-13.38-33.3-29.97-65.32-44.19-98.32-12.87-29.85-24.34-60.32-36.61-90.42-1.6-8.34,8.93-19.07,10.78-27.24-2.07-1.61-16.99,9.87-19.47,12.02-8.3,7.19-13.51,13.98-17.99,24.01-14.02,31.31-13.52,62.24-9.39,95.82h0c10.77,3.06,21.55,7.85,28.83,16.67,10.95,13.24,11.02,31.11,12.9,47.06.52,4.43,2.54,11.53-.42,15.37-3.63,4.71-6.19-.58-5.43,11.54,1.89,30.42,8.95,63.38,11.98,94.51l-2.02-3.43-2.97-12.57c-.1,11.62,4.15,24.08,4,35.53-.02,1.92.96,4.03-2.01,3.47-3.61-42.21-9.47-85.71-16.47-127.48,2.27.56,10.01-1.03,11.01-2.48s1.46-13.61-1.86-15.12c-.53-.24-.71-.89-.3-1.3l.27-.27c.5-.5.16-1.35-.54-1.36-2.02-.05-4.23-.11-5.92.67-1.5.69-.27,1.64-3.18,3.33,0,0,0,0,0,.01-.07,8.18,2.14,10.15,3.57,18.65-4.06-1-8.07-16.03-5.23-18.37.54-.44,1.43-.15,1.66-.29.22-28.07-10.39-54.21-43.24-49.74-10.4,1.41-22.69,10.95-26.23,20.77-1.68,4.65-4.03,19.81-3.62,24.48.36,4.09,4.24,6.45,4.76,8.68,1.94,8.22-5.16,10.77-7.03,17.96s-3.6,20.59-4.55,28.45c-2.28,18.8-2.35,38.04-4.12,56.89.47,2.5,8.35,6.54,11.01,8.03,22.4,12.6,60.63,29.09,85.78,33.22,3.08.51,4.9,1.38,4.24-2.74,0,0,0,0,0,0,.26.28,2.76-.58,2.19,3.07-.08.49.29.94.78.94h0c.47,0,.83-.4.79-.86-.16-1.68,1.15-3.39,1.23-4.15l1.18,5.82c113.73,24.35,236.15-14.59,314.72-99.49l.82-1.95c.4-42.96-5.85-84.72-20.45-125.16-3.12-8.64-7.39-20.15-12.1-27.9-11.15-18.31-44.52-38.95-63.5-49.5-9.37-5.21-20.8-8.8-28.67-15.83ZM479.92,458.41c-17.4.45-39.05-1.18-41.71,21.41-1.11,9.4-.07,18.64-.07,27.85,0,18.75-5.67,50.24,17.74,56.26,9.97,2.57,51.09,2.37,61.04-.4,9.05-2.52,15.96-10.63,17.07-19.93,1.68-14.05,1.29-44.46.15-58.93-2.09-26.52-20.29-25.68-41.58-25.51-4.78.04-9.79-.83-12.64-.76ZM283.09,627.21v-3.99h-.98v3.99h.98Z"/>
      <path class="cls-3" d="M152.32,411.6c-.07.3-.25.57-.48.78-7.47,6.96-10.45,12.24-14.88,22.06-16.34,36.19-23.92,80.58-24.87,120.13-.14,5.72-.24,11.53.5,17.19.21,1.64-1.79,2.6-2.93,1.41l-.03-.03C.7,460.36-7.09,277.05,81.32,149.8c138.34-199.12,436.28-192.46,565.84,13.79,77.78,123.82,67.44,299.04-35.05,406.04-.96,1.01-.9,4.05-2.98,1.97.9-52.18-10.06-105.1-33.16-151.73-.02-.05-.05-.09-.07-.14-10.88-18.69-32.29-27.72-48.75-40.15-2.44-1.85-.99-4.02-4.05-2.92-.51.18-1.07.13-1.52-.17-7.84-5.19-31.79-20.01-39.44-20.4-.34-.02-.67-.01-1.01,0-.61.01-1.17-.3-1.49-.82-7.01-11.36-26.24-32.84-37.78-37.4-6.9-2.73-14.83-2.99-22.23-2.81-.94.02-1.71-.71-1.74-1.64-.12-3.75.33-12.49-2.17-14.77-.67-.61-.83-1.59-.3-2.32,2.88-3.96,5.92-7.92,8.24-12.21,2.38-4.4,7.54-20.55,8.97-22.06,1.24-1.31,4.83-.11,7.77-1.15,16.18-5.76,28.41-41.07,12.56-52.86-.53-.39-.81-1.03-.67-1.68,7.17-34.58,11.55-83.9-20.21-107.69-12.45-9.33-21.35-5.4-32.93-10.07-6.18-2.49-12.69-9.12-19.22-11.78-20.34-8.3-44.6-4.52-63.09,6.48-10.15,6.04-42.05,33.6-49.22,42.78-11.75,15.04-9.28,43.27-6.16,61.21.83,4.77,4.83,16.01,4.61,19.39-.18,2.83-6.87,6.71-7.68,11.15-2.6,14.18,3.25,35.94,17.78,41.75,2.58,1.03,7.74,1.35,9.07,2.93s2.05,8.09,3.14,10.86c2.43,6.15,9.31,18.01,14.11,24.57.48.66.52,1.67-.14,2.16-.22.16,0,.59-.17,1.51-1.25,6.75-2.46,14.45,1.54,20.42,6.62,9.92,27.78,26.22,38.12,32.88,1.24.8,4.8,1.98,5.09,2.42.48.73,4.12,2.19,4.71,3.41,1.2,2.47.14,2.82-2.41,7.1s-15.81,16.22-19.89,21.05c-.44.53-.54,1.27-.22,1.87,2,3.78,4.75,7.17,7.52,10.36,3.27,3.77,5.41,5.33,8.49,9.47,1.53,2.06,2.64,1.6,3.58,3.5.66,1.34-.14,2.69-1.08,3.01-.23.08-.42.24-.57.58-1.37,12.87-10.15,29.27-8.9,41.93.49,4.98,15.93,42.95,19,46.49.3.34.63.74,1,1,.47.33.06,1.66,1.94.39,3.36-2.25,3.6-9.47,5.49-13.21,4.56-9.04,14.14-28.54,14.43-36.27.4-10.96-8.18-28.63-9.94-40.47-.07-.45-.3-.84-.66-1.12-.01-.01-.03-.02-.04-.03-.96-.75-1.16-2.13-.48-3.14,3.87-5.84,18.14-17.23,18.41-22.78.17-3.46-8.81-12.22-12.22-15.82l-1.08-1.3c-.68-.8-1.7-2.23-2.28-2.83-2.11-2.72-8-5.12-6.39-9.74.15-.43.45-.78.86-.99,11.73-5.86,22.86-12.87,32.98-21.19,2.42-1.99,9.99-10.8,11.76-11.44,3.33-1.2,14.43-2.01,17.42.67.19.17.31.41.39.66,2.79,8.63,11.14,18.89,10.44,28.07-.44,5.76-8.86,20.05-11.51,26.54-18.32,44.81-35.95,88.57-56.66,132.34-3.41,7.2-7.26,15.65-11.31,22.8-.65,1.14-2.29,1.15-2.95.02-1.77-3.05-4.36-8.2-4.89-9.28-20.69-42.89-39.83-89.39-57.29-132.77-5.33-13.23-10.32-26.61-16.12-39.65-.06-.14-.11-.28-.13-.43-1.14-6.88,8.11-18.06,10.16-25.22,1.22-4.28,1.47-8.89,2.76-13.24.36-1.21-.69-2.37-1.93-2.16-14.72,2.52-26.62,10.59-36.67,21.57-2.96,3.23-11.99,17.66-13.52,18.64s-4.97,1.37-7.36,2.49c-16.38,7.69-34.07,15.73-48.93,26.08-7.65,5.33-22.54,16.75-28.75,23.26-1.83,1.92-1.53,3.07-1.75,4.04Z"/>
      <path class="cls-9" d="M288.09,647.37c-3.03-31.13-10.09-64.09-11.98-94.51-.75-12.12,1.81-6.83,5.43-11.54,2.96-3.84.94-10.94.42-15.37-1.87-15.95-1.94-33.82-12.9-47.06-7.29-8.81-18.06-13.61-28.84-16.67-4.13-33.58-5.46-65.16,8.55-96.47,4.49-10.02,10.08-17.2,18.38-24.38,2.48-2.15,17.78-14.19,19.85-12.57-1.85,8.18-12.31,20.48-10.71,28.83,12.26,30.1,23.74,60.58,36.61,90.42,14.23,32.99,30.81,65.02,44.19,98.32,1.83.38,1.97-.48,2.75-1.73,4.31-6.89,9.73-19.74,13.41-27.59,20.27-43.3,38.46-87.24,56.34-131.66,2.47-6.14,12.68-25.05,12.06-30.05-1-8.03-8.41-17.07-10.57-24.96,46.28,20.91,52.99,79.43,48.79,124.72-.16,1.7-1.5,3.05-3.2,3.22-4.92.5-14.32-.18-17.07.07-19.84,1.8-23.56,16.2-24.56,33.44-.79,13.68-.18,36.37,1.01,50.08,1.43,16.58,11.29,25.27,27.5,26.5,12.17.92,47.7,1.37,57.77-3.31,5.85-2.71,11.27-8.58,13.26-14.74,3.2-9.92,2.24-48.32,1.55-60.53-.58-10.35-1.24-19.31-10.02-25.98-.31-.23-.78-.53-1.37-.86-5.46-3.07-11.65-4.62-17.92-4.62h-8.28c-1.35,0-2.45-1.09-2.44-2.45.19-31.33.16-71.12-16.01-98.55.66.02,1.34-.03,2,0,7.87,7.03,19.3,10.62,28.67,15.83,18.97,10.55,52.35,31.19,63.5,49.5,4.72,7.75,8.98,19.25,12.1,27.9,14.6,40.43,20.85,82.2,20.45,125.16l-.82,1.95c-78.57,84.9-200.99,123.84-314.72,99.49l-1.18-5.82c.73-6.43-1.33-17.12-2-24Z"/>
      <path class="cls-9" d="M304.09,300.29c24.67,29.97,62.45,34.6,94.32,12.82,2.95-2.01,10.6-7.12,9.18-10.82-8.39,8.29-19.35,15.82-30.72,19.28-42.81,13.02-80.51-20.94-89.69-60.88-1.75-2.2-5-1-7.35-1.65-15.19-4.17-21.93-26.04-19.68-40.2,2.37-14.92,14.83-3.81,23.33-8.67,6.02-3.44,12.43-25.71,12.61-32.9,6.61.85,12.92,3.38,19.63,3.88,21.77,1.63,51.1-9.92,66.9-24.85,2.6-2.46,12.21-15.01,13.96-15.04,5.11,23.85,12.68,66.06,43.03,68.99,7.58.73,13.13-3.09,16.68,5.32,5.47,12.98-3.1,40.34-17.92,43.47-2.12.45-6.07-.24-7.12.39-1.1.66-7.49,19.85-9.64,23.86-3.2,5.96-7.46,11.16-11.42,16.59l3.9-1.61c.92,10.5,3.51,17.15-3.49,26.01-7.87,9.96-32.7,28.98-44.52,33.48-11.32,4.3-14.35.88-23.9-5.07-10.06-6.27-29.2-21.57-36.08-30.92-5.34-7.26-2.19-13.44-2.01-21.49Z"/>
      <path class="cls-9" d="M152.09,412.29c15.92-14.71,31.82-27.35,51.33-38.17l33.67-16.82c-11.33,23.15-14.15,46.94-14.04,72.54.01,2.85,1.03,5.27,1.09,7.91.17,7.63-.25,15.3.02,22.93-15.15,4.71-30.1,11.96-36.92,27.25-4.37,9.8-6.99,31.84-7.21,42.83-.09,4.69.35,8.47,5.35,9.41.5.09.95.36,1.31.71.13.13.26.26.41.4-1.56,29.7-8.76,59.11-8.01,89-.83.93-8.02-4.31-9.31-5.18-20.18-13.54-38.96-29.76-55.48-47.52-.73-46.52,4.42-92.23,22.04-135.55,4.82-11.86,9.8-18.99,15.75-29.75Z"/>
      <path class="cls-9" d="M268.12,521.56c.06,2.08-.4,4.15-1.26,6.05,0,0,0,.01,0,.02-.95,2.11-.86,9.01.96,12.74s3.33,7.85,3.99,12.07c6.09,38.65,10.02,77.9,13.35,116.85.05.59-.14,1.85,0,2,.66,4.12-1.16,3.25-4.24,2.74-25.15-4.13-63.38-20.62-85.78-33.22-.85-.48-2.22-1.21-3.72-2.07-4.51-2.59-7.1-7.57-6.72-12.76,1.25-16.67,1.55-33.56,3.55-50.1.95-7.86,2.62-20.99,4.55-28.45s9.01-10.6,5.14-20.45c-.84-2.13-2.64-3.29-2.88-6.2-.38-4.67,1.94-19.83,3.62-24.48,3.54-9.82,15.83-19.35,26.23-20.77,31.39-4.27,42.48,19.4,43.21,46.01Z"/>
      <path class="cls-3" d="M480,458.52c2.85-.07,7.87.8,12.64.76,21.29-.17,39.49-1.01,41.58,25.51,1.14,14.47,1.53,44.88-.15,58.93-1.11,9.3-8.02,17.41-17.07,19.93-9.95,2.77-51.07,2.97-61.04.4-23.41-6.03-17.73-37.52-17.74-56.26,0-9.21-1.04-18.45.07-27.85,2.66-22.59,24.31-20.96,41.71-21.41ZM453.19,550.33c.09.07-.37,1.37.71,1.99,5.17,2.96,42.72,2.55,50.84,2.06,10.41-.63,18.49-.59,19.49-12.51,1.29-15.31,1.47-45.94,0-61.09-.55-5.68-3.57-9.95-9.04-11.96-7.34-2.7-40.27-2.21-49.54-1.53-5.01.37-12.02,1.66-14.94,6.04-1.68,2.53-2.3,5.47-2.56,8.46-1.74,19.76,1.41,41.83.03,61.87.65,5.59,2.17,4.51,5.01,6.67Z"/>
      <path class="cls-9" d="M368.45,369.54c.67.7.98,1.2,1.63,1.87.2.21,3.16,3.94,4.2,5.06,3.06,3.3,11.75,9.7,11.64,14.46-.02.72-.37,1.39-.89,1.9-11.92,11.56-21.25,34.1-38.97,16-3.88-3.97-10.79-11.66-13.97-16.03l-.6-.83c-.88-1.21-.75-2.88.31-3.93l25.27-25.03c1.04-1.03,2.7-1.14,3.85-.22,2.59,2.07,6.58,5.77,7.52,6.76Z"/>
      <path class="cls-3" d="M285.09,669.29c2.97.57,1.99-1.55,2.01-3.47.14-11.45-4.1-23.9-4-35.53l2.97,12.57,2.02,3.43c.67,6.88,2.73,17.57,2,24-.1.89-1.88,3.08-1,5h-1.99c1.16-4.73-1.72-3.71-2-4-.14-.15.05-1.41,0-2Z"/>
      <rect class="cls-3" x="282.1" y="623.3" width=".98" height="3.99"/>
      <path class="cls-9" d="M367.98,416.22l9.88,36.81c.27,2.77.6,5.97.17,8.7-1.26,8.14-13.14,31.95-17.06,41.75-.6,1.5-.09,1.11-1.71,2.91-.37-.26-.86-1.07-1.16-1.42-.6-2.67-.58-1.78-1.13-3.06-5-11.58-18.27-38.59-16.63-49.89,1.37-9.44,8.97-26.06,8.76-34.74l14.4-.62s3.1-.34,4.49-.45Z"/>
      <path class="cls-8" d="M450.06,542.83c-1.17-15.77-1.69-47.74,0-63.06.8-7.23,4.45-9.67,11.53-10.48,11.88-1.35,38.91-.72,50.76,1.24,8.01,1.32,9.22,6.03,9.78,13.22,1.19,15.44,1.39,43.79.01,59.08-.5,5.55-1.75,6.53-7.01,7.99-9.97,2.77-39.35,2.31-50.57,1.5-2.3-.17-11.76-7.8-14.66-9.47-.2-.12-.44.05-.4.28.33,1.88,1.32,8.05,2.19,8.66.77.55,2.28,1,4.31,1.37,11.87,2.18,41.72,1.59,48.66,1.17,10.41-.63,18.49-.59,19.49-12.51,1.29-15.31,1.47-45.94,0-61.09-.55-5.68-3.57-9.95-9.04-11.96-7.34-2.7-40.27-2.21-49.54-1.53-5.01.37-12.02,1.66-14.94,6.04-1.68,2.53-2.3,5.47-2.56,8.46-1.74,19.76,1.4,42.02.02,62.06,0,0,.89,6.92,3.89,8.07l3.9,1.27"/>
      <path class="cls-9" d="M453.09,550.29c-3.14-.9-2.85-4.99-3.04-7.47-1.17-15.77-1.69-47.74,0-63.06.8-7.23,4.45-9.67,11.53-10.48,11.88-1.35,38.91-.72,50.76,1.24,8.01,1.32,9.22,6.03,9.78,13.22,1.19,15.44,1.39,43.79.01,59.08-.5,5.55-1.75,6.53-7.01,7.99-9.97,2.77-39.35,2.31-50.57,1.5-2.47-.18-9.36-1.43-11.46-2.04ZM476.09,487.29c-2.27,4.3-.43,10.29-.99,15.01-.9.9-12.89-1.43-15.01.99v20l15.01.99.99,15.01h20l.99-15.01,15.01-.99v-20l-15.01-.99-.99-15.01h-20Z"/>
      <path class="cls-8" d="M496.09,487.29v16.01s16,0,16,0v20h-16.01s0,16,0,16h-20v-16.01s-16,0-16,0v-20h16.01s0-16,0-16h20ZM480.09,504.29c-.19.5-1.65,2.7-2,3l-13.02.58v11.43s13.02,0,13.02,0c.12.07,1.93,1.88,2,2v13.01s12.01,0,12.01,0v-12.01c.51-.91,2.12-2.56,2.99-3h12.01s0-12.01,0-12.01h-11.01c-1.33-.47-3.29-1.72-4-2.99v-12.01s-11.42-.01-11.42-.01l-.58,12.02Z"/>
      <polygon class="cls-10" points="512.09 523.29 497.09 524.29 496.09 539.29 496.09 523.29 512.09 523.29"/>
      <polygon class="cls-10" points="496.09 487.29 497.09 502.3 512.09 503.29 496.09 503.3 496.09 487.29"/>
      <path class="cls-10" d="M476.09,487.29v16.01s-16,0-16,0c2.11-2.43,14.11-.1,15.01-.99.57-4.72-1.27-10.7.99-15.01Z"/>
      <polygon class="cls-10" points="460.09 523.29 476.1 523.29 476.09 539.29 475.1 524.29 460.09 523.29"/>
      <path class="cls-9" d="M480.09,504.29c1.63-4.19.41-6.85,1.58-11.02h9.43c.29,3.88-.94,7.55.99,11.02.71,1.27,2.67,2.53,4,3,3.63,1.3,6.07,1.18,10,.99v10.01c-4,.22-7.36-.85-11,.99-.88.44-2.48,2.09-3,3-1.96,3.43-.69,7.17-.99,11.01h-10.01c-.44-3.97,1.13-8.61-.99-12.01-.07-.12-1.88-1.93-2-2-.34-.21-.64-1.14-1.47-1h-10.54s-.01-9.43-.01-9.43c.25-1.67,9.33.74,12.02-1.58.35-.3,1.81-2.5,2-3Z"/>
      <path class="cls-10" d="M478.09,507.29c-2.69,2.32-11.77-.09-12.02,1.58v9.43s10.55,0,10.55,0c.83-.14,1.13.78,1.47,1h-13.01s-.01-11.42-.01-11.42l13.02-.58Z"/>
      <path class="cls-10" d="M480.09,521.29c2.12,3.39.56,8.03.99,12.01h10.01c.31-3.84-.97-7.58.99-11.01v12.01s-12.01,0-12.01,0v-13.01Z"/>
      <path class="cls-10" d="M480.09,504.29l.58-12.02h11.43s0,12.02,0,12.02c-1.94-3.47-.71-7.14-.99-11.01h-9.43c-1.17,4.15.05,6.82-1.58,11.01Z"/>
      <path class="cls-10" d="M496.09,507.29h11.01s0,12.01,0,12.01h-12.01c3.64-1.85,7.01-.78,11.01-1v-10.01c-3.93.18-6.37.31-10.01-.99Z"/>
      <path class="cls-3" d="M374.57,373.13c-.65-.67-2.16-2.42-2.37-2.61-1.11-5.02-7.02-5.55-4.52-10.64"/>
    </g>
    <path class="cls-8" d="M193.99,538.83l-11.68-1.18s-.57-16.97-.45-16.89,11.33.78,11.33.78c0,0,2.04,2.11.8,17.3Z"/>
    <path class="cls-8" d="M268.15,522.97s-4.8,11.73.46,19.07c3.94,5.51,12.05-2.9,12.05-2.9,0,0,2.3-14.38-.38-17.28s-12.13,1.11-12.13,1.11Z"/>
  </g>
  <polygon class="cls-8" points="193.72 539.31 181.98 538.04 181.21 521.36 190.75 520.76 195.14 526.36 193.72 539.31"/>
  <path class="cls-8" d="M268.68,541.81s-10.19-9.99.15-18.52c10.82-8.92,11.87,2.55,11.87,2.55,0,0,2.68,12.06-.57,14.23s-11.45,1.73-11.45,1.73Z"/>
  <g>
    <path class="cls-1" d="M110.75,728.43h493.5c25.24,0,45.69,20.46,45.69,45.69h0c0,25.24-20.46,45.69-45.69,45.69H110.75c-25.24,0-45.69-20.46-45.69-45.69h0c0-25.24,20.46-45.69,45.69-45.69Z"/>
    <g>
      <g class="cls-6">
        <path class="cls-4" d="M114.23,791.1c-1.22,0-2.26-.43-3.13-1.3-.87-.87-1.3-1.91-1.3-3.13v-26.59c0-1.22.43-2.26,1.3-3.13.87-.87,1.91-1.3,3.13-1.3h26.59c1.22,0,2.26.43,3.13,1.3.87.87,1.3,1.91,1.3,3.13v9.97l8.86-8.86v24.37l-8.86-8.86v9.97c0,1.22-.43,2.26-1.3,3.13-.87.87-1.91,1.3-3.13,1.3h-26.59ZM114.23,786.67h26.59v-26.59h-26.59v26.59Z"/>
      </g>
      <path class="cls-5" d="M290.64,770.88c0,6.88-5.58,12.46-12.46,12.46s-12.46-5.58-12.46-12.46v-9.97c0-6.88,5.58-12.46,12.46-12.46s12.46,5.58,12.46,12.46v9.97ZM278.18,753.43c-4.13,0-7.48,3.35-7.48,7.48v9.97c0,4.13,3.35,7.48,7.48,7.48s7.48-3.35,7.48-7.48v-9.97c0-4.13-3.35-7.48-7.48-7.48ZM288.15,795.81c0,1.38-1.12,2.49-2.49,2.49h-14.95c-1.38,0-2.49-1.12-2.49-2.49s1.12-2.49,2.49-2.49h14.95c1.38,0,2.49,1.12,2.49,2.49ZM278.18,790.82c11.01,0,19.94-8.93,19.94-19.94,0-1.38-1.12-2.49-2.49-2.49s-2.49,1.12-2.49,2.49c0,8.26-6.69,14.95-14.95,14.95s-14.95-6.7-14.95-14.95c0-1.38-1.12-2.49-2.49-2.49s-2.49,1.12-2.49,2.49c0,11.01,8.93,19.94,19.94,19.94Z"/>
      <path class="cls-12" d="M407.6,777.92c-1.68-2.8-1.68-6.29,0-9.09.51-.85,1.36-1.45,2.34-1.65l3.99-.8c.24-.05.45-.17.61-.36l6.83-8.2c1.96-2.36,2.95-3.54,3.82-3.22.88.32.88,1.85.88,4.92v27.68c0,3.07,0,4.6-.88,4.92-.88.32-1.86-.86-3.82-3.22l-6.83-8.2c-.15-.19-.37-.31-.61-.36l-3.99-.8c-.98-.2-1.82-.79-2.34-1.65Z"/>
      <path class="cls-2" d="M432.03,765.05c2.2,2.2,3.43,5.17,3.45,8.28.01,3.11-1.2,6.09-3.38,8.3"/>
      <path class="cls-2" d="M437.53,760.06c3.51,3.51,5.49,8.27,5.51,13.24.02,4.97-1.93,9.74-5.41,13.28"/>
      <circle class="cls-7" cx="582.77" cy="775.71" r="27.26"/>
      <path class="cls-4" d="M597.49,780.05v.2c-.01.92-.76,1.65-1.68,1.64l-5.41-.06c-.78,0-1.45-.56-1.61-1.33l-.47-2.28c-.32-1.57-1.73-2.69-3.33-2.65l-2.21.05-1.73-.05c-1.44-.04-2.75.85-3.23,2.22l-.98,2.76c-.24.67-.87,1.12-1.59,1.11l-5.56-.06c-.92-.01-1.65-.76-1.64-1.68v-.2c.06-4.96,3.75-9.13,8.67-9.77l.75-.1c3.59-.47,7.23-.43,10.81.12l.75.12c4.9.76,8.5,5,8.45,9.96Z"/>
    </g>
  </g>
</svg>