<svg width="100" height="100" viewBox="0 0 100 100" fill="none" xmlns="http://www.w3.org/2000/svg">
<g id="new logo">
<g id="Layer 2">
<path id="Vector" d="M99.8747 66.5092L99.9493 22.2198C99.9244 21.4821 99.7027 17.0363 95.968 13.831C92.841 11.1475 89.2821 11.0768 88.3551 11.0863C86.2737 11.1895 84.1923 11.2908 82.1108 11.3941C79.8402 11.5068 78.9017 14.3566 80.6601 15.7958C81.1035 16.159 81.6597 16.3578 82.2331 16.3578H88.0359C88.5501 16.3807 90.9125 16.5374 92.8085 18.4908C94.5555 20.2932 94.7505 22.432 94.7829 22.992V60.5497H4.95035V22.8009C5.0593 22.1032 5.47597 20.0142 7.29555 18.294C8.62202 17.0382 10.0613 16.5776 10.7799 16.3998H24.2548L23.6718 11.2488C19.3675 11.2966 15.0632 11.3463 10.7589 11.3941C9.82425 11.4208 6.68393 11.6253 3.85516 14.0298C0.684257 16.7248 0.135705 20.2875 0.02867 21.1304C0.0191133 37.2907 0.00955666 53.4491 0 69.6094C0.0974779 70.6052 0.594424 74.4909 3.91058 77.5376C6.44501 79.8656 9.2604 80.4486 10.3976 80.6206H35.7228L33.4216 89.7854C31.7186 89.9135 30.0156 90.0415 28.3126 90.1696C26.2044 90.7755 24.7938 92.7614 24.9161 94.9059C25.0327 96.9472 26.5159 98.698 28.5496 99.1662H70.23C70.3026 99.1662 70.3752 99.1624 70.4479 99.1529C72.7644 98.847 74.0928 96.8306 74.1941 94.6077C74.3068 92.1287 72.0553 89.967 69.4119 89.7892L65.5587 89.7739L63.0568 80.4275C71.9234 80.4677 80.792 80.5097 89.6587 80.5499C90.5532 80.4027 94.5976 79.6362 97.4779 75.8766C100.591 71.8093 99.9951 67.3062 99.8766 66.5092H99.8747ZM37.7966 89.147L40.201 79.9612L57.3036 80.0567L59.7769 89.147H37.7966ZM94.1809 68.6002C94.0414 69.3246 93.5349 71.4481 91.614 73.153C89.0394 75.439 85.922 75.1981 85.3811 75.1484C60.809 75.1714 36.2369 75.1924 11.6629 75.2153C10.8392 75.0854 9.0234 74.6859 7.30129 73.239C5.16633 71.4462 4.52986 69.1851 4.34637 68.4072V64.4908L94.179 64.682V68.6002H94.1809Z" fill="#374B52"/>
<path id="Vector_2" d="M48.2038 71.7386C49.8104 71.7386 51.1128 70.4362 51.1128 68.8295C51.1128 67.2229 49.8104 65.9205 48.2038 65.9205C46.5972 65.9205 45.2947 67.2229 45.2947 68.8295C45.2947 70.4362 46.5972 71.7386 48.2038 71.7386Z" fill="#374B52"/>
</g>
<g id="Layer 3">
<path id="Vector_3" d="M79.886 19.9434C80.1861 20.4996 80.9602 21.9905 80.9602 24.0432C80.9602 24.6396 80.9583 27.3326 79.4426 28.8866C79.4426 28.8866 77.9308 30.4366 77.2293 31.4726C77.2293 31.4726 77.1872 31.5337 77.1318 31.6159C77.021 31.7784 76.9521 31.8453 76.9521 31.8797C76.9254 35.2341 77.2828 38.3438 76.3386 41.6026C73.3703 51.8455 62.858 60.2897 52.2558 55.1043C51.0976 54.5366 50.7841 54.1964 49.7673 53.5867C48.9875 53.1184 48.6549 52.9617 47.9305 52.178C46.1835 50.2877 44.0103 47.0576 43.5593 44.5117C43.2783 42.9329 43.435 41.0808 43.328 39.4639C43.3223 39.3645 43.263 39.2785 43.1751 39.2345C34.8092 34.9971 28.152 25.0123 27.3206 15.6601C26.8772 10.6849 26.9345 5.81486 31.344 2.68219C33.4464 1.18753 34.1479 1.9253 35.9675 1.38439C36.5829 1.20091 36.9422 0.241417 38.2974 0.0846878C40.6732 -0.188633 43.0222 0.556787 44.3506 2.62676C47.1086 6.92917 42.4067 12.0993 37.8769 10.4441C37.5137 10.3122 37.2117 9.63561 36.9059 10.3505C36.3899 11.5565 36.5141 14.8535 36.6976 16.2125C36.883 17.5829 37.3742 18.9266 37.5978 20.2951C37.6208 20.4327 37.7374 20.5359 37.8769 20.5359H37.9495C38.0929 20.5359 38.2133 20.4289 38.2324 20.2856C39.2167 13.0493 49.4653 9.36803 54.6335 14.6968C56.0766 16.1838 56.1645 17.9805 58.8098 17.5141C58.9321 17.4931 59.0239 17.3918 59.0391 17.2676C59.3144 15.0141 59.668 12.7721 59.1041 10.5416C59.0621 10.3734 58.8805 10.2759 58.72 10.3447C52.1908 13.0741 48.6606 2.61529 55.2012 0.373301C58.1504 -0.637794 58.4333 0.656176 60.5759 1.29456C62.1393 1.75901 63.5403 1.66727 65.0312 2.76055C67.4681 4.54765 68.9991 8.89211 68.9551 11.8489C68.9437 12.5829 68.332 16.5126 68.4658 16.7171C68.569 16.8528 68.6436 16.9025 68.7124 16.9044C68.8672 16.9101 68.9991 16.7859 69.0564 16.7267C69.0564 16.7267 69.5572 16.2144 70.1612 15.771C70.4479 15.5588 70.704 15.4938 71.1474 15.3773C72.2942 15.0791 73.4334 15.2549 73.873 15.339C73.873 15.339 73.9456 15.3524 74.0144 15.3677C74.8 15.5378 78.0875 16.6062 79.8899 19.9415L79.886 19.9434ZM77.2044 16.2775L71.7132 32.3843C71.5565 32.3843 71.4284 32.5123 71.4284 32.6691V38.0227C71.4284 40.3641 68.8844 44.9475 67.3267 46.7212C61.6347 53.2006 51.5658 52.1169 49.3735 43.0877C48.8632 40.9834 49.2474 38.8255 48.9435 36.6982C48.9206 36.5338 49.0352 36.3847 49.1996 36.3675C54.3048 35.7788 58.0969 31.3636 60.6657 27.2485C63.7334 22.3326 67.9173 11.2698 63.5958 6.30034C62.8714 5.46891 60.1496 4.10231 59.5877 5.43451H59.4023C58.6951 1.20282 53.1006 4.17876 55.6007 6.65967C56.8296 7.8791 57.9248 7.26174 59.1405 6.50485C59.2226 6.45324 59.3239 6.4456 59.4119 6.48574C61.736 7.54079 62.6344 9.49991 62.6611 12.0305C62.7299 18.8196 59.5457 25.9221 54.7272 30.6736C47.187 38.1106 40.6502 31.8893 36.5791 24.7466C34.5798 21.2393 32.0894 12.7683 33.6414 8.99341C34.4824 6.95019 35.8337 7.14515 37.5844 6.51441C37.6762 6.48191 37.7775 6.49721 37.8559 6.55455C39.8322 8.01863 42.2118 7.59813 41.5982 4.62028C41.1281 2.33624 37.9094 2.84848 37.4851 4.82288C37.4449 5.00637 37.2442 5.10384 37.076 5.01783C35.3711 4.12907 33.0393 5.31792 32.011 6.78773C29.123 10.9124 31.8027 20.8303 33.972 25.0601C36.5313 30.0525 40.7152 35.15 46.3536 36.5625C46.4855 36.5949 46.5754 36.7154 46.5677 36.8511C46.2466 42.7609 47.4431 49.4487 53.4122 52.0462C61.7016 55.6528 69.4177 50.5114 72.5484 42.7762C73.8768 39.4944 74.0775 36.1267 73.7468 32.6442C73.7335 32.4971 73.6092 32.3862 73.4621 32.3862H71.7132L77.2044 16.2775ZM41.3899 20.6296L41.3459 24.6835L45.8586 24.6721V28.3399H49.2589V24.8173L53.0758 24.7638V20.5589H49.2589V16.5432H45.6942V20.6105L41.3918 20.6296H41.3899ZM72.3363 19.0566C67.5121 19.6586 66.1015 25.8686 70.0274 28.531C74.282 31.4172 80.0218 26.4477 77.3937 21.9217C76.3788 20.1766 74.4311 18.7928 72.3363 19.0547V19.0566ZM52.1908 39.0051C52.0532 39.0472 51.9672 39.1829 51.9902 39.3262C52.3877 41.8951 52.2329 43.8389 54.236 45.8668C57.7624 49.4353 63.2517 47.2984 65.9696 43.837C68.6876 40.3756 68.4697 36.0101 68.3454 31.8854C68.3435 31.7975 68.2996 31.7191 68.2288 31.6675C66.7055 30.5494 65.79 29.1121 64.8037 27.604C64.689 27.4282 64.431 27.432 64.3221 27.6117C61.4933 32.2639 57.5254 37.369 52.1889 39.007L52.1908 39.0051Z" fill="#374B52"/>
</g>
</g>
</svg>
