<?xml version="1.0" encoding="UTF-8"?>
<svg id="Layer_1" data-name="Layer 1" xmlns="http://www.w3.org/2000/svg" viewBox="0 0 493.53 493.53">
  <circle cx="246.77" cy="246.77" r="244.77" style="fill: #374b52; stroke: #000; stroke-miterlimit: 10; stroke-width: 4px;"/>
  <g>
    <path d="M179.47,309.45c.22,7.11-.38,7.86,3.58,14.02,13.69,21.26,51.16,21.25,64.84,0,3.96-6.16,3.36-6.91,3.58-14.02,30.59-2.38,58.95,4.39,78.73,28.84,9.98,12.34,15.47,27.31,17.27,43.02-24.03.69-48.2-.54-72.24.03-6.07-20.42-34.48-25.01-44.77-5.66-16.62,31.27,33.56,52.04,44.77,17.58,24.05-.45,48.21.71,72.25.03-.06,15.96.08,31.95,0,47.91h-42s0,43.25,0,43.25c-80.81,15.82-123.19,3.22-180-25.03v-18.22s-30.65-2.49-30.65-2.49c-.2-42.08-18.85-82.67,17.54-112.01,19.69-15.88,42.34-18.69,67.1-17.24Z" style="fill: #1f3139; stroke: #000; stroke-miterlimit: 10; stroke-width: .5px;"/>
    <path d="M146.47,215.88c4.25-2.4,10.25-2.38,15-2.24.04-4.62-1.22-10.13,4.28-11.82,16.98-2.92,43.95,7.19,54.37-10.11,2.13-3.54,1.72-8.32,7.7-8.07,5.34.22,5,4.77,6.99,8.07,3.23,5.36,8.39,9.3,14.79,9.94,10.59,1.06,22.16-4.62,19.86,11.99,4.75-.14,10.75-.15,15,2.24,14.95,8.42,9.24,30.47-2.32,39.23-4.02,3.05-14.85,6.01-15.68,6.81-.88.85-2.57,5.84-3.63,7.61-3.05,5.14-6.51,9.75-10.99,13.73-.92,8.69-.12,17.48-.39,26.19-.22,7.11.38,7.86-3.58,14.02-13.68,21.25-51.15,21.26-64.84,0-3.96-6.16-3.36-6.91-3.58-14.02-.27-8.7.53-17.5-.39-26.19-4.48-3.99-7.94-8.6-10.99-13.73-1.05-1.77-2.74-6.76-3.63-7.61-.83-.79-11.66-3.75-15.68-6.81-11.55-8.76-17.27-30.81-2.32-39.23Z" style="fill: #eaecee; stroke: #000; stroke-miterlimit: 10; stroke-width: .5px;"/>
    <path d="M284.47,215.88c-4.25-2.4-10.25-2.38-15-2.24,2.3-16.61-9.27-10.93-19.86-11.99-6.4-.64-11.56-4.58-14.79-9.94-1.98-3.29-1.64-7.84-6.99-8.07-5.98-.25-5.57,4.53-7.7,8.07-10.42,17.3-37.39,7.19-54.37,10.11-5.5,1.7-4.24,7.2-4.28,11.82-4.75-.14-10.75-.15-15,2.24-5.13-22.85-4.56-44.62,8.23-64.76,27.12-42.72,88.68-44.62,118.81-4.02,15.19,20.47,16.52,44.51,10.96,68.78Z" style="fill: #1f3139; stroke: #000; stroke-miterlimit: 10; stroke-width: .5px;"/>
    <path d="M347.47,381.31c12.2-.35,20.31-1.26,23.82-14.78l.18-87.78c-26.77-.96-50.91-22.07-57.7-47.58-3.41-12.82-3.79-47.7-2.31-61.33,1.27-11.72,13.04-17.88,24.01-16.09.23-3.2-.83-6.98,1.14-9.72,2.62-3.64,9.18-2.84,10.52,1.44.9,2.86.79,22.86.35,26.63-.88,7.61-10.94,7.31-11.97.69-.35-2.23.14-4.79-.04-7.07-4.41.11-9.61-1.23-11.67,3.71.97,25.13-6.12,55.85,10.6,77.08,22.09,28.04,64.06,28.01,86.12,0,16.81-21.34,9.33-50.71,10.89-75.87-1.22-6.07-7.1-4.93-11.96-4.91-.18,2.28.31,4.84-.04,7.07-1.03,6.62-11.08,6.92-11.97-.69-.62-5.32-.62-19.42,0-24.73.89-7.61,10.94-7.31,11.97-.69.35,2.24-.14,4.79.04,7.07,11.59-1.72,22.91,4.49,24.04,16.81,1.15,12.57.84,34.44,0,47.23-2.05,31.52-27.95,59.62-60.04,60.97l.03,86.49c-3.31,21.56-15.88,27.47-36.03,28.04-24.03.68-48.2-.48-72.25-.03-11.21,34.46-61.39,13.69-44.77-17.58,10.29-19.36,38.7-14.77,44.77,5.66,24.05-.56,48.21.66,72.24-.03Z" style="fill: #dae8ed; stroke: #000; stroke-miterlimit: 10; stroke-width: .5px;"/>
    <path d="M125.47,459.41c-7.83-4.09-30.45-20.7-30.45-20.7l30.46,2.47v18.22" style="fill: #eaecee; stroke: #000; stroke-miterlimit: 10; stroke-width: .25px;"/>
    <path d="M347.47,441.19c-.04,9.21.02,28.72.02,28.72,0,0,.14-.27,0-.2-2.65,1.28-31,14.03-42.02,14.09v-42.6s42,0,42,0Z" style="fill: #eaecee; stroke: #000; stroke-miterlimit: 10; stroke-width: .25px;"/>
  </g>
  <circle cx="246.77" cy="246.77" r="244.77" style="fill: none; stroke: #000; stroke-miterlimit: 10; stroke-width: 4px;"/>
  <path d="M179.08,283.27c1.53,2.22,12.37,17.35,32.22,19.21,15.71,1.47,31.19-5.92,40.56-19.21" style="fill: none; stroke: #000; stroke-miterlimit: 10;"/>
</svg>