<svg width="64" height="64" viewBox="0 0 64 64" fill="none" xmlns="http://www.w3.org/2000/svg">
<rect width="64" height="64" rx="32" fill="black"/>
<path d="M34.9421 20.3334C34.3898 20.3334 33.9421 20.7811 33.9421 21.3334C33.9421 21.8857 34.3898 22.3334 34.9421 22.3334V20.3334ZM42.6667 21.3334H43.6667C43.6667 20.7811 43.219 20.3334 42.6667 20.3334V21.3334ZM41.6667 29.0575C41.6667 29.6098 42.1144 30.0575 42.6667 30.0575C43.219 30.0575 43.6667 29.6098 43.6667 29.0575H41.6667ZM33.6546 30.3449L32.9475 29.6377L32.9475 29.6378L33.6546 30.3449ZM29.058 43.6667C29.6103 43.6667 30.058 43.219 30.058 42.6667C30.058 42.1144 29.6103 41.6667 29.058 41.6667V43.6667ZM21.3334 42.6667H20.3334C20.3334 43.219 20.7811 43.6667 21.3334 43.6667V42.6667ZM22.3334 34.9426C22.3334 34.3903 21.8857 33.9426 21.3334 33.9426C20.7811 33.9426 20.3334 34.3903 20.3334 34.9426H22.3334ZM34.9421 22.3334H42.6667V20.3334H34.9421V22.3334ZM41.6667 21.3334V29.0575H43.6667V21.3334H41.6667ZM41.9596 20.6262L32.9475 29.6377L34.3617 31.052L43.3738 22.0405L41.9596 20.6262ZM29.058 41.6667H21.3334V43.6667H29.058V41.6667ZM22.3334 42.6667V34.9426H20.3334V42.6667H22.3334ZM22.0405 43.3738L34.3617 31.052L32.9475 29.6378L20.6263 41.9596L22.0405 43.3738Z" fill="white"/>
</svg>
