<svg width="24" height="25" viewBox="0 0 24 25" fill="none" xmlns="http://www.w3.org/2000/svg">
<g id="calendar 1" clip-path="url(#clip0_430_1222)">
<path id="Vector" d="M2.43174 24.1662C2.38656 24.1662 2.34137 24.1568 2.30088 24.1369C2.12895 24.0512 1.92709 24.03 1.74577 23.9543C0.776972 23.5498 0.117413 22.6304 0.0141364 21.5819C0.0129628 21.5701 0.012376 21.5578 0.012376 21.5461C0.0552122 15.788 -0.0779908 10.0122 0.0792708 4.26408C0.0792708 4.24999 0.0810312 4.23531 0.0827916 4.22122C0.239466 3.20498 1.49345 2.04079 2.51741 2.04079H3.6382C3.80837 2.04079 3.94626 1.90282 3.94626 1.73257V0.474448C3.94626 0.304194 4.08416 0.166229 4.25433 0.166229H5.51242C5.6826 0.166229 5.82049 0.304194 5.82049 0.474448V1.73316C5.82049 1.90341 5.95839 2.04138 6.12856 2.04138H17.8815C18.0517 2.04138 18.1896 1.90341 18.1896 1.73316V0.474448C18.1896 0.304194 18.3275 0.166229 18.4977 0.166229H19.7558C19.9259 0.166229 20.0638 0.304194 20.0638 0.474448V1.73316C20.0638 1.90341 20.2017 2.04138 20.3719 2.04138H21.4927C21.6364 2.04138 22.1088 2.19108 22.2649 2.25331C23.1809 2.61848 23.7653 3.46095 23.9907 4.39558C23.9965 4.41965 23.9995 4.4449 23.9995 4.46956V21.7609C23.9995 21.802 23.9907 21.8425 23.9754 21.8801C23.8686 22.1402 23.8152 22.3903 23.6797 22.651C23.2566 23.4647 22.4808 23.9707 21.5959 24.1598C21.5742 24.1645 21.5519 24.1668 21.5296 24.1668H2.43174V24.1662ZM3.63937 3.91652H2.9669C2.37247 3.91652 1.88602 4.40322 1.88602 4.99793V6.79558C1.88602 6.96584 2.02392 7.1038 2.19409 7.1038H21.8183C21.9885 7.1038 22.1264 6.96584 22.1264 6.79558V4.99793C22.1264 4.40322 21.64 3.91652 21.0455 3.91652H20.3731C20.2029 3.91652 20.065 4.05449 20.065 4.22474V5.48345C20.065 5.6537 19.9271 5.79167 19.7569 5.79167H18.4988C18.3287 5.79167 18.1908 5.6537 18.1908 5.48345V4.22474C18.1908 4.05449 18.0529 3.91652 17.8827 3.91652H6.12915C5.95898 3.91652 5.82108 4.05449 5.82108 4.22474V5.48345C5.82108 5.6537 5.68318 5.79167 5.51301 5.79167H4.25492C4.08475 5.79167 3.94685 5.6537 3.94685 5.48345V4.22474C3.94685 4.05449 3.80895 3.91652 3.63878 3.91652H3.63937ZM21.8178 8.97895H2.1935C2.02333 8.97895 1.88543 9.11691 1.88543 9.28717V21.5179C1.88543 21.8584 2.47986 22.3615 2.84367 22.2934H21.2134C21.5613 22.3386 22.1252 21.8431 22.1252 21.5179V9.28717C22.1252 9.11691 21.9873 8.97895 21.8172 8.97895H21.8178Z" fill="#097695"/>
<path id="Vector_2" d="M4.98132 10.9474H4.03775C3.78076 10.9474 3.57242 11.1559 3.57242 11.413V12.357C3.57242 12.6142 3.78076 12.8226 4.03775 12.8226H4.98132C5.23831 12.8226 5.44665 12.6142 5.44665 12.357V11.413C5.44665 11.1559 5.23831 10.9474 4.98132 10.9474Z" fill="#097695"/>
<path id="Vector_3" d="M8.72919 10.9474H7.78562C7.52863 10.9474 7.32029 11.1559 7.32029 11.413V12.357C7.32029 12.6142 7.52863 12.8226 7.78562 12.8226H8.72919C8.98619 12.8226 9.19452 12.6142 9.19452 12.357V11.413C9.19452 11.1559 8.98619 10.9474 8.72919 10.9474Z" fill="#097695"/>
<path id="Vector_4" d="M12.4777 10.9474H11.5341C11.2771 10.9474 11.0688 11.1559 11.0688 11.413V12.357C11.0688 12.6142 11.2771 12.8226 11.5341 12.8226H12.4777C12.7346 12.8226 12.943 12.6142 12.943 12.357V11.413C12.943 11.1559 12.7346 10.9474 12.4777 10.9474Z" fill="#097695"/>
<path id="Vector_5" d="M16.2255 10.9474H15.282C15.025 10.9474 14.8166 11.1559 14.8166 11.413V12.357C14.8166 12.6142 15.025 12.8226 15.282 12.8226H16.2255C16.4825 12.8226 16.6909 12.6142 16.6909 12.357V11.413C16.6909 11.1559 16.4825 10.9474 16.2255 10.9474Z" fill="#097695"/>
<path id="Vector_6" d="M19.974 10.9474H19.0304C18.7734 10.9474 18.5651 11.1559 18.5651 11.413V12.357C18.5651 12.6142 18.7734 12.8226 19.0304 12.8226H19.974C20.231 12.8226 20.4393 12.6142 20.4393 12.357V11.413C20.4393 11.1559 20.231 10.9474 19.974 10.9474Z" fill="#097695"/>
<path id="Vector_7" d="M4.98132 14.6977H4.03775C3.78076 14.6977 3.57242 14.9062 3.57242 15.1633V16.1073C3.57242 16.3644 3.78076 16.5729 4.03775 16.5729H4.98132C5.23831 16.5729 5.44665 16.3644 5.44665 16.1073V15.1633C5.44665 14.9062 5.23831 14.6977 4.98132 14.6977Z" fill="#097695"/>
<path id="Vector_8" d="M8.72919 14.6977H7.78562C7.52863 14.6977 7.32029 14.9062 7.32029 15.1633V16.1073C7.32029 16.3644 7.52863 16.5729 7.78562 16.5729H8.72919C8.98619 16.5729 9.19452 16.3644 9.19452 16.1073V15.1633C9.19452 14.9062 8.98619 14.6977 8.72919 14.6977Z" fill="#097695"/>
<path id="Vector_9" d="M12.4777 14.6977H11.5341C11.2771 14.6977 11.0688 14.9062 11.0688 15.1633V16.1073C11.0688 16.3644 11.2771 16.5729 11.5341 16.5729H12.4777C12.7346 16.5729 12.943 16.3644 12.943 16.1073V15.1633C12.943 14.9062 12.7346 14.6977 12.4777 14.6977Z" fill="#097695"/>
<path id="Vector_10" d="M16.2255 14.6977H15.282C15.025 14.6977 14.8166 14.9062 14.8166 15.1633V16.1073C14.8166 16.3644 15.025 16.5729 15.282 16.5729H16.2255C16.4825 16.5729 16.6909 16.3644 16.6909 16.1073V15.1633C16.6909 14.9062 16.4825 14.6977 16.2255 14.6977Z" fill="#097695"/>
<path id="Vector_11" d="M19.974 14.6977H19.0304C18.7734 14.6977 18.5651 14.9062 18.5651 15.1633V16.1073C18.5651 16.3644 18.7734 16.5729 19.0304 16.5729H19.974C20.231 16.5729 20.4393 16.3644 20.4393 16.1073V15.1633C20.4393 14.9062 20.231 14.6977 19.974 14.6977Z" fill="#097695"/>
<path id="Vector_12" d="M4.98132 18.4474H4.03775C3.78076 18.4474 3.57242 18.6559 3.57242 18.913V19.857C3.57242 20.1142 3.78076 20.3226 4.03775 20.3226H4.98132C5.23831 20.3226 5.44665 20.1142 5.44665 19.857V18.913C5.44665 18.6559 5.23831 18.4474 4.98132 18.4474Z" fill="#097695"/>
<path id="Vector_13" d="M8.72919 18.4474H7.78562C7.52863 18.4474 7.32029 18.6559 7.32029 18.913V19.857C7.32029 20.1142 7.52863 20.3226 7.78562 20.3226H8.72919C8.98619 20.3226 9.19452 20.1142 9.19452 19.857V18.913C9.19452 18.6559 8.98619 18.4474 8.72919 18.4474Z" fill="#097695"/>
<path id="Vector_14" d="M12.4777 18.4474H11.5341C11.2771 18.4474 11.0688 18.6559 11.0688 18.913V19.857C11.0688 20.1142 11.2771 20.3226 11.5341 20.3226H12.4777C12.7346 20.3226 12.943 20.1142 12.943 19.857V18.913C12.943 18.6559 12.7346 18.4474 12.4777 18.4474Z" fill="#097695"/>
<path id="Vector_15" d="M16.2255 18.4474H15.282C15.025 18.4474 14.8166 18.6559 14.8166 18.913V19.857C14.8166 20.1142 15.025 20.3226 15.282 20.3226H16.2255C16.4825 20.3226 16.6909 20.1142 16.6909 19.857V18.913C16.6909 18.6559 16.4825 18.4474 16.2255 18.4474Z" fill="#097695"/>
</g>
<defs>
<clipPath id="clip0_430_1222">
<rect width="24" height="24" fill="white" transform="translate(0 0.166229)"/>
</clipPath>
</defs>
</svg>
