<svg width="24" height="25" viewBox="0 0 24 25" fill="none" xmlns="http://www.w3.org/2000/svg">
<g id="Setting_alt_line">
<path id="Star 2" d="M3.08168 14.1107C2.55298 13.1603 2.28862 12.6851 2.28862 12.1662C2.28862 11.6474 2.55298 11.1722 3.08169 10.2217L4.43094 7.79623L5.85685 5.41499C6.4156 4.4819 6.69498 4.01535 7.14431 3.75593C7.59364 3.49651 8.13737 3.48783 9.22483 3.47049L12 3.42623L14.7752 3.47049C15.8626 3.48783 16.4064 3.49651 16.8557 3.75593C17.305 4.01535 17.5844 4.4819 18.1431 5.41499L19.5691 7.79623L20.9183 10.2217C21.447 11.1722 21.7114 11.6474 21.7114 12.1662C21.7114 12.6851 21.447 13.1603 20.9183 14.1107L19.5691 16.5362L18.1431 18.9175C17.5844 19.8506 17.305 20.3171 16.8557 20.5765C16.4064 20.836 15.8626 20.8446 14.7752 20.862L12 20.9062L9.22483 20.862C8.13737 20.8446 7.59364 20.836 7.14431 20.5765C6.69498 20.3171 6.4156 19.8506 5.85685 18.9175L4.43094 16.5362L3.08168 14.1107Z" stroke="#097695" stroke-width="2"/>
<circle id="Ellipse 5" cx="12" cy="12.1662" r="3" stroke="#097695" stroke-width="2"/>
</g>
</svg>
