<svg width="23" height="25" viewBox="0 0 23 25" fill="none" xmlns="http://www.w3.org/2000/svg">
<g id="Layer 3">
<path id="Vector" d="M22.3348 8.61124C22.4619 8.84676 22.7897 9.47806 22.7897 10.3473C22.7897 10.5998 22.7889 11.7402 22.1471 12.3982C22.1471 12.3982 21.5069 13.0546 21.2098 13.4932C21.2098 13.4932 21.192 13.5191 21.1686 13.5539C21.1216 13.6227 21.0925 13.6511 21.0925 13.6656C21.0812 15.086 21.2325 16.4029 20.8327 17.7828C19.5758 22.1201 15.1243 25.6958 10.6349 23.5001C10.1444 23.2597 10.0117 23.1156 9.5811 22.8574C9.25089 22.6591 9.11006 22.5928 8.80331 22.2609C8.06357 21.4605 7.14333 20.0927 6.95233 19.0146C6.83335 18.3461 6.89972 17.5619 6.8544 16.8771C6.85197 16.8351 6.82688 16.7986 6.78965 16.78C3.24712 14.9857 0.428153 10.7576 0.076086 6.79749C-0.111683 4.69075 -0.0874026 2.62852 1.77977 1.302C2.67005 0.669085 2.96709 0.981495 3.73759 0.752449C3.9982 0.674751 4.15036 0.268457 4.72419 0.20209C5.73021 0.086353 6.7249 0.402 7.2874 1.27853C8.45529 3.10037 6.46429 5.28967 4.54613 4.58877C4.39235 4.53293 4.26447 4.24642 4.13498 4.54911C3.91645 5.05981 3.96906 6.45594 4.04676 7.03139C4.12527 7.61169 4.33327 8.18067 4.42796 8.76016C4.43768 8.81844 4.48705 8.86214 4.54613 8.86214H4.57688C4.63759 8.86214 4.68857 8.81682 4.69667 8.75612C5.11348 5.69192 9.45322 4.13311 11.6417 6.38958C12.2528 7.01925 12.29 7.78004 13.4101 7.58256C13.4619 7.57366 13.5008 7.53076 13.5073 7.47815C13.6238 6.52393 13.7735 5.57456 13.5348 4.63005C13.517 4.55883 13.4401 4.51755 13.3721 4.54668C10.6074 5.70244 9.11249 1.27367 11.8821 0.324303C13.1309 -0.103844 13.2507 0.444086 14.158 0.714409C14.82 0.911081 15.4133 0.872232 16.0446 1.33518C17.0765 2.09192 17.7248 3.93158 17.7062 5.18364C17.7013 5.49443 17.4423 7.15846 17.499 7.24506C17.5427 7.30252 17.5742 7.32357 17.6034 7.32438C17.6689 7.32681 17.7248 7.2742 17.7491 7.24911C17.7491 7.24911 17.9611 7.0322 18.2169 6.84443C18.3383 6.75459 18.4467 6.72708 18.6345 6.67771C19.1201 6.55145 19.6025 6.62591 19.7886 6.66152C19.7886 6.66152 19.8194 6.66718 19.8485 6.67366C20.1812 6.74569 21.5732 7.19812 22.3365 8.61043L22.3348 8.61124ZM21.1993 7.05891L18.8741 13.8793C18.8077 13.8793 18.7535 13.9335 18.7535 13.9999V16.2669C18.7535 17.2583 17.6762 19.1992 17.0166 19.9502C14.6064 22.6939 10.3427 22.235 9.41437 18.4117C9.19828 17.5206 9.36096 16.6068 9.23227 15.706C9.22256 15.6364 9.27112 15.5733 9.34072 15.566C11.5025 15.3167 13.1082 13.4471 14.196 11.7046C15.495 9.62293 17.2667 4.93841 15.4368 2.8341C15.13 2.48203 13.9775 1.90335 13.7395 2.46746H13.661C13.3616 0.675561 10.9926 1.93572 12.0512 2.98626C12.5716 3.50262 13.0354 3.2412 13.5502 2.9207C13.585 2.89885 13.6279 2.89561 13.6651 2.91261C14.6493 3.35937 15.0296 4.18895 15.041 5.26053C15.0701 8.13534 13.7217 11.1429 11.6814 13.1549C8.48848 16.3041 5.7205 13.6697 3.99658 10.6451C3.15 9.15998 2.09542 5.57294 2.75261 3.97447C3.10872 3.10928 3.68093 3.19183 4.4223 2.92475C4.46115 2.91099 4.50404 2.91746 4.53723 2.94174C5.37409 3.5617 6.38174 3.38365 6.12193 2.12268C5.92283 1.1555 4.55989 1.37241 4.38021 2.20847C4.36322 2.28617 4.27823 2.32744 4.20701 2.29102C3.48507 1.91468 2.49766 2.41809 2.06223 3.04048C0.839303 4.78706 1.97401 8.98678 2.89263 10.7779C3.97635 12.8919 5.74802 15.0504 8.1356 15.6485C8.19144 15.6623 8.22948 15.7133 8.22625 15.7708C8.09028 18.2733 8.59693 21.1052 11.1245 22.2051C14.6347 23.7323 17.902 21.5552 19.2278 18.2797C19.7902 16.8901 19.8752 15.464 19.7352 13.9894C19.7295 13.9271 19.6769 13.8801 19.6146 13.8801H18.8741L21.1993 7.05891ZM6.03372 8.9018L6.0151 10.6184L7.92598 10.6136V12.1667H9.36581V10.6751L10.9821 10.6524V8.87185H9.36581V7.17141H7.85637V8.89371L6.03452 8.9018H6.03372ZM19.1379 8.2357C17.0951 8.49065 16.4978 11.1202 18.1602 12.2477C19.9618 13.4698 22.3923 11.3655 21.2795 9.44892C20.8497 8.70998 20.025 8.12402 19.1379 8.2349V8.2357ZM10.6074 16.6829C10.5491 16.7007 10.5127 16.7582 10.5224 16.8189C10.6907 17.9066 10.6252 18.7297 11.4734 19.5885C12.9666 21.0995 15.2911 20.1947 16.442 18.7289C17.5929 17.2632 17.5006 15.4146 17.448 13.6681C17.4472 13.6308 17.4286 13.5977 17.3986 13.5758C16.7536 13.1023 16.3659 12.4937 15.9483 11.8551C15.8997 11.7807 15.7904 11.7823 15.7443 11.8584C14.5465 13.8283 12.8663 15.9901 10.6065 16.6837L10.6074 16.6829Z" fill="#097695"/>
</g>
</svg>
